M48
;Layer_Color=9474304
;FILE_FORMAT=4:4
METRIC,LZ
;TYPE=PLATED
T1F00S00C0.3000
T2F00S00C0.6500
T3F00S00C0.7000
T4F00S00C0.8000
T5F00S00C0.8500
T6F00S00C0.9000
T7F00S00C1.0000
T8F00S00C1.0200
T9F00S00C1.1000
T10F00S00C1.4500
T11F00S00C3.0000
%
T01
X0046Y00165
X0049Y0017
X0052Y00165
X00475Y00225
X0046Y00245
X0047Y00265
X0046Y00355
X00406564Y0032
X0037Y00315
X00325Y003
X003Y00305
X00395Y00265
Y00245
X00365Y00235
X00427119Y00222119
X0043Y0016
X0045Y00155
X0013Y00375
X0009Y00395
X0009185Y0045829
X0017Y00435
T02
X0020637Y0051369
X0027197
T03
X0051984Y0027593
Y0032473
X003522Y0052004
Y0054544
X0028997
Y0057084
X0021758Y0059136
Y0061636
T04
X0042332Y0025588
Y0028128
Y0033208
Y0035748
X0044618Y0043019
Y0045019
X0046904Y0056743
Y0061743
T05
X0048469Y0019365
X0037719
T06
X0026965Y0011237
Y0013777
Y0016317
Y0018857
Y0021397
Y0023937
Y0026477
Y0029017
Y0031557
Y0034097
X0034585
Y0031557
Y0029017
Y0026477
Y0023937
Y0021397
Y0018857
Y0016317
Y0013777
Y0011237
Y0036637
Y0039177
Y0041717
Y0044257
X0026965
Y0041717
Y0039177
Y0036637
T07
X0013Y001442
Y001696
Y00195
X001404Y0046
X00115
X000896
X0031537Y0065974
X0034077
X0036617
T08
X0052Y00165
Y001904
X0013Y002823
Y003077
X000373Y0046
X000627
X0053Y004477
Y004223
X0055Y005296
Y00555
T09
X0047Y000396
Y00065
Y000904
Y001158
X003458Y00025
X003204
X00295
X002696
X0024
X002146
X001892
X001638
T10
X0021Y001803
Y003897
T11
X00595Y00025
X00025
Y00695
X00595
M30
