G04*
G04 #@! TF.GenerationSoftware,Altium Limited,Altium Designer,22.5.1 (42)*
G04*
G04 Layer_Color=16711935*
%FSLAX44Y44*%
%MOMM*%
G71*
G04*
G04 #@! TF.SameCoordinates,3BE08D2E-9295-4D5D-90EC-08E0B097B468*
G04*
G04*
G04 #@! TF.FilePolarity,Negative*
G04*
G01*
G75*
%ADD15R,1.5700X1.5700*%
%ADD16C,1.5700*%
%ADD17R,1.5500X1.5500*%
%ADD18C,1.5500*%
%ADD19C,1.7500*%
%ADD20R,1.7500X1.7500*%
%ADD21R,1.5700X1.5700*%
%ADD22C,2.2000*%
%ADD23R,2.2000X2.2000*%
%ADD24R,1.6500X1.6500*%
%ADD25C,1.6500*%
%ADD26R,1.7500X1.7500*%
%ADD27C,1.2000*%
%ADD28R,1.2000X1.2000*%
%ADD29C,1.3000*%
%ADD30R,1.3000X1.3000*%
%ADD31R,1.5500X1.5500*%
%ADD32C,1.1500*%
%ADD33R,1.1500X1.1500*%
%ADD34R,1.3500X1.3500*%
%ADD35C,1.3500*%
%ADD36C,1.3500*%
%ADD37R,1.3500X1.3500*%
%ADD38C,1.4500*%
%ADD39R,1.4500X1.4500*%
%ADD40C,0.7500*%
%ADD41C,3.6500*%
D15*
X62700Y460000D02*
D03*
D16*
X37300D02*
D03*
X520000Y190400D02*
D03*
X130000Y307700D02*
D03*
X550000Y555000D02*
D03*
X530000Y422300D02*
D03*
D17*
X140400Y460000D02*
D03*
D18*
X115000D02*
D03*
X89600D02*
D03*
X130000Y195000D02*
D03*
Y169600D02*
D03*
D19*
X470000Y115800D02*
D03*
Y90400D02*
D03*
Y65000D02*
D03*
X240000Y25000D02*
D03*
X214600D02*
D03*
X189200D02*
D03*
X345800D02*
D03*
X320400D02*
D03*
X295000D02*
D03*
X315370Y659740D02*
D03*
X340770D02*
D03*
D20*
X470000Y39600D02*
D03*
X366170Y659740D02*
D03*
D21*
X520000Y165000D02*
D03*
X130000Y282300D02*
D03*
X550000Y529600D02*
D03*
X530000Y447700D02*
D03*
D22*
X210000Y180300D02*
D03*
D23*
Y389700D02*
D03*
D24*
X269650Y442570D02*
D03*
D25*
Y417170D02*
D03*
Y391770D02*
D03*
Y366370D02*
D03*
Y340970D02*
D03*
Y315570D02*
D03*
Y290170D02*
D03*
Y264770D02*
D03*
Y239370D02*
D03*
Y213970D02*
D03*
Y188570D02*
D03*
Y163170D02*
D03*
Y137770D02*
D03*
Y112370D02*
D03*
X345850Y442570D02*
D03*
Y417170D02*
D03*
Y391770D02*
D03*
Y366370D02*
D03*
Y340970D02*
D03*
Y315570D02*
D03*
Y290170D02*
D03*
Y264770D02*
D03*
Y239370D02*
D03*
Y213970D02*
D03*
Y188570D02*
D03*
Y163170D02*
D03*
Y137770D02*
D03*
Y112370D02*
D03*
D26*
X163800Y25000D02*
D03*
X269600D02*
D03*
D27*
X217580Y616360D02*
D03*
X289970Y545440D02*
D03*
X352200Y520040D02*
D03*
D28*
X217580Y591360D02*
D03*
X289970Y570840D02*
D03*
X352200Y545440D02*
D03*
D29*
X469040Y617430D02*
D03*
D30*
Y567430D02*
D03*
D31*
X130000Y144200D02*
D03*
D32*
X206370Y513690D02*
D03*
D33*
X271970D02*
D03*
D34*
X519840Y275930D02*
D03*
D35*
Y324730D02*
D03*
D36*
X377190Y193650D02*
D03*
D37*
X484690D02*
D03*
D38*
X446180Y450190D02*
D03*
X423320Y357480D02*
D03*
Y281280D02*
D03*
D39*
X446180Y430190D02*
D03*
X423320Y332080D02*
D03*
Y255880D02*
D03*
D40*
X490000Y170000D02*
D03*
X520000Y165000D02*
D03*
X91850Y458290D02*
D03*
X90000Y395000D02*
D03*
X450000Y155000D02*
D03*
X430000Y160000D02*
D03*
X460000Y165000D02*
D03*
X395000Y265000D02*
D03*
X370000Y315000D02*
D03*
X406564Y320000D02*
D03*
X427119Y222119D02*
D03*
X395000Y245000D02*
D03*
X475000Y225000D02*
D03*
X365000Y235000D02*
D03*
X325000Y300000D02*
D03*
X300000Y305000D02*
D03*
X460000Y355000D02*
D03*
X470000Y265000D02*
D03*
X460000Y245000D02*
D03*
X130000Y375000D02*
D03*
X170000Y435000D02*
D03*
D41*
X25000Y25000D02*
D03*
X595000D02*
D03*
Y695000D02*
D03*
X25000D02*
D03*
M02*
