G04*
G04 #@! TF.GenerationSoftware,Altium Limited,Altium Designer,22.5.1 (42)*
G04*
G04 Layer_Color=16711935*
%FSLAX44Y44*%
%MOMM*%
G71*
G04*
G04 #@! TF.SameCoordinates,3BE08D2E-9295-4D5D-90EC-08E0B097B468*
G04*
G04*
G04 #@! TF.FilePolarity,Positive*
G04*
G01*
G75*
%ADD11C,0.2000*%
%ADD13C,0.1500*%
%ADD51C,0.1000*%
D11*
X22100Y446800D02*
X77900D01*
X22100D02*
Y473200D01*
X77900D01*
Y446800D02*
Y473200D01*
X76900Y447300D02*
X153100D01*
X76900D02*
Y472700D01*
X153100D01*
Y447300D02*
Y472700D01*
X506800Y149800D02*
X533200D01*
Y205600D01*
X506800D02*
X533200D01*
X506800Y149800D02*
Y205600D01*
X116800Y267100D02*
X143200D01*
Y322900D01*
X116800D02*
X143200D01*
X116800Y267100D02*
Y322900D01*
X183500Y332500D02*
X236500D01*
X183500Y237500D02*
Y332500D01*
Y237500D02*
X236500D01*
Y332500D01*
X536800Y514400D02*
X563200D01*
Y570200D01*
X536800D02*
X563200D01*
X536800Y514400D02*
Y570200D01*
X274095Y583540D02*
X305845D01*
X274095Y532740D02*
Y583540D01*
Y532740D02*
X305845D01*
Y583540D01*
X336325Y558140D02*
X368075D01*
X336325Y507340D02*
Y558140D01*
Y507340D02*
X368075D01*
Y558140D01*
X516800Y462900D02*
X543200D01*
X516800Y407100D02*
Y462900D01*
Y407100D02*
X543200D01*
Y462900D01*
X117300Y131500D02*
X142700D01*
Y207700D01*
X117300D02*
X142700D01*
X117300Y131500D02*
Y207700D01*
X257170Y503690D02*
Y523690D01*
X221170D02*
X257170D01*
X221170Y503690D02*
Y523690D01*
Y503690D02*
X257170D01*
X467790Y181200D02*
Y206100D01*
X394090D02*
X467790D01*
X394090Y181200D02*
Y206100D01*
Y181200D02*
X467790D01*
D13*
X251580Y603860D02*
G03*
X251580Y603860I-34000J0D01*
G01*
X521540Y592430D02*
G03*
X521540Y592430I-52500J0D01*
G01*
D51*
X285750Y444970D02*
G03*
X285750Y444970I-5000J0D01*
G01*
X496589Y251831D02*
G03*
X504839Y243581I8250J0D01*
G01*
X534839Y243581D02*
G03*
X543089Y251831I0J8250D01*
G01*
Y348831D02*
G03*
X534839Y357081I-8250J0D01*
G01*
X504839Y357081D02*
G03*
X496589Y348831I0J-8250D01*
G01*
X501339Y254581D02*
G03*
X505839Y250081I4500J0D01*
G01*
X533839D02*
G03*
X538339Y254581I0J4500D01*
G01*
Y346081D02*
G03*
X533839Y350581I-4500J0D01*
G01*
X505839D02*
G03*
X501339Y346081I0J-4500D01*
G01*
X471180Y440190D02*
G03*
X471180Y440190I-25000J0D01*
G01*
X457300Y26900D02*
Y128500D01*
X482700Y26900D02*
Y128500D01*
X457300Y26900D02*
X482700D01*
X457300Y128500D02*
X482700D01*
X271750Y100970D02*
Y453970D01*
X343750Y100970D02*
Y453970D01*
X271750D02*
X343750D01*
X271750Y100970D02*
X343750D01*
X151100Y37700D02*
X252700D01*
X151100Y12300D02*
X252700D01*
X151100D02*
Y37700D01*
X252700Y12300D02*
Y37700D01*
X256900D02*
X358500D01*
X256900Y12300D02*
X358500D01*
X256900D02*
Y37700D01*
X358500Y12300D02*
Y37700D01*
X289770Y646640D02*
X391770D01*
X289770Y633140D02*
Y680140D01*
X391770Y633140D02*
Y680140D01*
X289770Y633140D02*
X391770D01*
X289770Y680140D02*
X391770D01*
X543089Y251831D02*
Y348831D01*
X496589Y251831D02*
Y348831D01*
X538339Y254580D02*
Y346080D01*
X501339Y254580D02*
Y346080D01*
X505839Y350581D02*
X533839D01*
X504839Y357081D02*
X534839D01*
X505839Y250081D02*
X533839D01*
X504839Y243581D02*
X534839D01*
X534839Y243581D01*
X410620Y325730D02*
Y363830D01*
X436020Y325730D02*
Y363830D01*
X410620Y325730D02*
X436020D01*
X410620Y363830D02*
X436020D01*
X410620Y249530D02*
Y287630D01*
X436020Y249530D02*
Y287630D01*
X410620Y249530D02*
X436020D01*
X410620Y287630D02*
X436020D01*
M02*
