G04*
G04 #@! TF.GenerationSoftware,Altium Limited,Altium Designer,22.5.1 (42)*
G04*
G04 Layer_Color=16711935*
%FSLAX44Y44*%
%MOMM*%
G71*
G04*
G04 #@! TF.SameCoordinates,3BE08D2E-9295-4D5D-90EC-08E0B097B468*
G04*
G04*
G04 #@! TF.FilePolarity,Positive*
G04*
G01*
G75*
%ADD11C,0.2000*%
G36*
X105616Y461873D02*
X105699D01*
X105791Y461864D01*
X105902Y461855D01*
X106133Y461818D01*
X106374Y461781D01*
X106614Y461716D01*
X106845Y461633D01*
X106855D01*
X106873Y461624D01*
X106901Y461605D01*
X106938Y461587D01*
X107049Y461531D01*
X107178Y461448D01*
X107326Y461337D01*
X107483Y461208D01*
X107631Y461050D01*
X107770Y460875D01*
Y460865D01*
X107788Y460847D01*
X107798Y460819D01*
X107825Y460782D01*
X107844Y460736D01*
X107872Y460681D01*
X107936Y460542D01*
X108001Y460366D01*
X108056Y460172D01*
X108094Y459950D01*
X108112Y459719D01*
X107317Y459645D01*
Y459654D01*
Y459664D01*
X107308Y459691D01*
Y459728D01*
X107289Y459811D01*
X107261Y459932D01*
X107224Y460052D01*
X107187Y460191D01*
X107123Y460320D01*
X107058Y460440D01*
X107049Y460449D01*
X107021Y460486D01*
X106975Y460551D01*
X106901Y460616D01*
X106808Y460699D01*
X106707Y460782D01*
X106568Y460865D01*
X106420Y460939D01*
X106411D01*
X106402Y460949D01*
X106374Y460958D01*
X106346Y460967D01*
X106254Y460995D01*
X106133Y461032D01*
X105985Y461069D01*
X105819Y461097D01*
X105634Y461115D01*
X105431Y461124D01*
X105347D01*
X105255Y461115D01*
X105144Y461106D01*
X105015Y461087D01*
X104867Y461069D01*
X104719Y461032D01*
X104580Y460986D01*
X104562Y460976D01*
X104515Y460958D01*
X104451Y460921D01*
X104368Y460884D01*
X104284Y460819D01*
X104192Y460755D01*
X104099Y460681D01*
X104025Y460588D01*
X104016Y460579D01*
X103998Y460542D01*
X103970Y460496D01*
X103933Y460422D01*
X103896Y460348D01*
X103868Y460255D01*
X103850Y460154D01*
X103841Y460043D01*
Y460033D01*
Y459987D01*
X103850Y459932D01*
X103859Y459858D01*
X103887Y459784D01*
X103914Y459691D01*
X103961Y459599D01*
X104025Y459516D01*
X104035Y459506D01*
X104062Y459479D01*
X104099Y459442D01*
X104164Y459386D01*
X104238Y459331D01*
X104340Y459266D01*
X104460Y459201D01*
X104599Y459146D01*
X104608Y459137D01*
X104654Y459127D01*
X104728Y459100D01*
X104774Y459090D01*
X104839Y459072D01*
X104904Y459044D01*
X104987Y459025D01*
X105079Y458998D01*
X105190Y458970D01*
X105301Y458942D01*
X105431Y458905D01*
X105579Y458868D01*
X105736Y458831D01*
X105745D01*
X105773Y458822D01*
X105819Y458813D01*
X105875Y458794D01*
X105948Y458776D01*
X106032Y458757D01*
X106217Y458702D01*
X106420Y458637D01*
X106633Y458573D01*
X106818Y458508D01*
X106901Y458471D01*
X106975Y458434D01*
X106984D01*
X106993Y458425D01*
X107049Y458388D01*
X107132Y458341D01*
X107224Y458267D01*
X107335Y458184D01*
X107446Y458083D01*
X107557Y457962D01*
X107650Y457833D01*
X107659Y457814D01*
X107687Y457768D01*
X107724Y457694D01*
X107761Y457602D01*
X107798Y457481D01*
X107835Y457343D01*
X107862Y457195D01*
X107872Y457038D01*
Y457029D01*
Y457019D01*
Y456992D01*
Y456954D01*
X107853Y456862D01*
X107835Y456742D01*
X107807Y456603D01*
X107761Y456446D01*
X107696Y456289D01*
X107604Y456132D01*
Y456122D01*
X107594Y456113D01*
X107548Y456058D01*
X107483Y455984D01*
X107400Y455891D01*
X107289Y455790D01*
X107150Y455679D01*
X106984Y455577D01*
X106799Y455485D01*
X106790D01*
X106771Y455475D01*
X106744Y455466D01*
X106707Y455448D01*
X106660Y455429D01*
X106596Y455410D01*
X106457Y455373D01*
X106281Y455337D01*
X106078Y455300D01*
X105865Y455272D01*
X105625Y455263D01*
X105505D01*
X105440Y455272D01*
X105375D01*
X105200Y455290D01*
X105006Y455318D01*
X104802Y455364D01*
X104580Y455420D01*
X104377Y455494D01*
X104368D01*
X104349Y455503D01*
X104321Y455522D01*
X104284Y455540D01*
X104192Y455586D01*
X104072Y455669D01*
X103933Y455762D01*
X103794Y455882D01*
X103665Y456021D01*
X103545Y456178D01*
Y456187D01*
X103535Y456196D01*
X103517Y456224D01*
X103498Y456252D01*
X103452Y456344D01*
X103397Y456465D01*
X103332Y456612D01*
X103286Y456788D01*
X103239Y456973D01*
X103221Y457176D01*
X104035Y457241D01*
Y457232D01*
Y457213D01*
X104044Y457186D01*
X104053Y457139D01*
X104081Y457038D01*
X104118Y456899D01*
X104173Y456751D01*
X104257Y456603D01*
X104358Y456465D01*
X104488Y456335D01*
X104506Y456326D01*
X104552Y456289D01*
X104645Y456233D01*
X104765Y456178D01*
X104922Y456122D01*
X105107Y456067D01*
X105338Y456030D01*
X105597Y456021D01*
X105727D01*
X105782Y456030D01*
X105856Y456039D01*
X106023Y456058D01*
X106207Y456095D01*
X106392Y456141D01*
X106568Y456215D01*
X106642Y456261D01*
X106716Y456307D01*
X106734Y456317D01*
X106771Y456354D01*
X106827Y456418D01*
X106882Y456492D01*
X106947Y456594D01*
X107002Y456705D01*
X107039Y456834D01*
X107058Y456982D01*
Y457001D01*
Y457038D01*
X107049Y457103D01*
X107030Y457176D01*
X107002Y457269D01*
X106956Y457361D01*
X106901Y457454D01*
X106818Y457546D01*
X106808Y457556D01*
X106762Y457583D01*
X106725Y457611D01*
X106688Y457630D01*
X106633Y457657D01*
X106568Y457694D01*
X106485Y457722D01*
X106392Y457759D01*
X106291Y457796D01*
X106170Y457842D01*
X106041Y457879D01*
X105893Y457925D01*
X105727Y457962D01*
X105542Y458008D01*
X105533D01*
X105496Y458018D01*
X105440Y458027D01*
X105375Y458046D01*
X105292Y458064D01*
X105190Y458092D01*
X105089Y458120D01*
X104978Y458147D01*
X104737Y458212D01*
X104506Y458277D01*
X104395Y458314D01*
X104293Y458351D01*
X104201Y458378D01*
X104127Y458415D01*
X104118D01*
X104099Y458425D01*
X104072Y458443D01*
X104035Y458462D01*
X103933Y458517D01*
X103813Y458591D01*
X103674Y458693D01*
X103535Y458804D01*
X103406Y458933D01*
X103295Y459072D01*
X103286Y459090D01*
X103249Y459137D01*
X103212Y459220D01*
X103156Y459331D01*
X103110Y459460D01*
X103064Y459617D01*
X103036Y459793D01*
X103027Y459978D01*
Y459987D01*
Y459996D01*
Y460024D01*
Y460061D01*
X103045Y460163D01*
X103064Y460292D01*
X103101Y460440D01*
X103147Y460597D01*
X103221Y460764D01*
X103323Y460939D01*
Y460949D01*
X103332Y460958D01*
X103378Y461013D01*
X103443Y461097D01*
X103535Y461189D01*
X103656Y461300D01*
X103804Y461420D01*
X103970Y461531D01*
X104164Y461633D01*
X104173D01*
X104192Y461642D01*
X104220Y461651D01*
X104257Y461670D01*
X104312Y461688D01*
X104377Y461716D01*
X104525Y461753D01*
X104700Y461799D01*
X104913Y461846D01*
X105144Y461873D01*
X105394Y461882D01*
X105542D01*
X105616Y461873D01*
D02*
G37*
G36*
X101890Y455373D02*
X100623D01*
X99107Y459913D01*
Y459922D01*
X99097Y459941D01*
X99088Y459969D01*
X99070Y460015D01*
X99033Y460126D01*
X98987Y460265D01*
X98940Y460422D01*
X98885Y460579D01*
X98839Y460727D01*
X98802Y460856D01*
X98792Y460838D01*
X98783Y460792D01*
X98755Y460708D01*
X98718Y460597D01*
X98672Y460449D01*
X98608Y460274D01*
X98543Y460070D01*
X98460Y459830D01*
X96925Y455373D01*
X95788D01*
Y461772D01*
X96601D01*
Y456418D01*
X98469Y461772D01*
X99227D01*
X101076Y456326D01*
Y461772D01*
X101890D01*
Y455373D01*
D02*
G37*
G36*
X111884Y461873D02*
X111967D01*
X112069Y461864D01*
X112180Y461846D01*
X112300Y461836D01*
X112568Y461781D01*
X112855Y461716D01*
X113151Y461614D01*
X113299Y461559D01*
X113447Y461485D01*
X113456Y461476D01*
X113484Y461466D01*
X113521Y461439D01*
X113576Y461411D01*
X113641Y461365D01*
X113706Y461319D01*
X113881Y461189D01*
X114066Y461023D01*
X114260Y460819D01*
X114445Y460588D01*
X114612Y460320D01*
Y460311D01*
X114630Y460283D01*
X114649Y460246D01*
X114676Y460181D01*
X114704Y460117D01*
X114732Y460024D01*
X114769Y459932D01*
X114806Y459821D01*
X114843Y459701D01*
X114880Y459562D01*
X114908Y459423D01*
X114935Y459275D01*
X114981Y458952D01*
X115000Y458610D01*
Y458600D01*
Y458563D01*
Y458517D01*
X114991Y458452D01*
Y458369D01*
X114981Y458267D01*
X114963Y458166D01*
X114954Y458046D01*
X114926Y457916D01*
X114908Y457777D01*
X114833Y457481D01*
X114741Y457176D01*
X114612Y456871D01*
X114602Y456862D01*
X114593Y456834D01*
X114575Y456797D01*
X114538Y456742D01*
X114501Y456668D01*
X114454Y456594D01*
X114325Y456418D01*
X114168Y456215D01*
X113974Y456021D01*
X113752Y455827D01*
X113622Y455743D01*
X113493Y455660D01*
X113484Y455651D01*
X113456Y455642D01*
X113419Y455623D01*
X113364Y455595D01*
X113289Y455568D01*
X113206Y455531D01*
X113114Y455494D01*
X113003Y455457D01*
X112883Y455420D01*
X112753Y455392D01*
X112615Y455355D01*
X112467Y455327D01*
X112143Y455281D01*
X111977Y455263D01*
X111681D01*
X111625Y455272D01*
X111551D01*
X111376Y455290D01*
X111181Y455318D01*
X110978Y455364D01*
X110756Y455420D01*
X110544Y455494D01*
X110534D01*
X110516Y455503D01*
X110488Y455512D01*
X110451Y455531D01*
X110349Y455586D01*
X110220Y455651D01*
X110081Y455743D01*
X109933Y455854D01*
X109795Y455975D01*
X109665Y456122D01*
X109647Y456141D01*
X109610Y456196D01*
X109554Y456280D01*
X109480Y456400D01*
X109406Y456548D01*
X109323Y456733D01*
X109240Y456936D01*
X109175Y457167D01*
X109943Y457371D01*
Y457361D01*
X109952Y457352D01*
X109961Y457324D01*
X109970Y457287D01*
X109998Y457204D01*
X110035Y457093D01*
X110091Y456964D01*
X110155Y456844D01*
X110220Y456714D01*
X110303Y456603D01*
X110312Y456594D01*
X110340Y456557D01*
X110396Y456511D01*
X110460Y456446D01*
X110544Y456372D01*
X110654Y456298D01*
X110775Y456224D01*
X110913Y456159D01*
X110932Y456150D01*
X110978Y456132D01*
X111061Y456104D01*
X111172Y456067D01*
X111302Y456039D01*
X111450Y456012D01*
X111616Y455993D01*
X111792Y455984D01*
X111893D01*
X111940Y455993D01*
X111995D01*
X112134Y456002D01*
X112291Y456030D01*
X112467Y456058D01*
X112633Y456104D01*
X112800Y456169D01*
X112818Y456178D01*
X112873Y456196D01*
X112947Y456243D01*
X113040Y456289D01*
X113151Y456363D01*
X113271Y456437D01*
X113382Y456529D01*
X113484Y456631D01*
X113493Y456640D01*
X113530Y456677D01*
X113576Y456742D01*
X113632Y456816D01*
X113696Y456908D01*
X113761Y457019D01*
X113826Y457139D01*
X113890Y457269D01*
Y457278D01*
X113900Y457297D01*
X113909Y457324D01*
X113927Y457371D01*
X113946Y457426D01*
X113964Y457491D01*
X113992Y457565D01*
X114011Y457648D01*
X114057Y457842D01*
X114094Y458064D01*
X114122Y458295D01*
X114131Y458554D01*
Y458563D01*
Y458591D01*
Y458637D01*
X114122Y458693D01*
Y458767D01*
X114112Y458859D01*
X114103Y458952D01*
X114094Y459053D01*
X114057Y459284D01*
X114011Y459525D01*
X113937Y459765D01*
X113844Y459996D01*
Y460006D01*
X113826Y460024D01*
X113816Y460052D01*
X113789Y460089D01*
X113724Y460191D01*
X113622Y460320D01*
X113502Y460459D01*
X113354Y460597D01*
X113179Y460727D01*
X112984Y460847D01*
X112975D01*
X112957Y460856D01*
X112929Y460875D01*
X112883Y460893D01*
X112837Y460912D01*
X112772Y460930D01*
X112624Y460986D01*
X112439Y461032D01*
X112235Y461078D01*
X112014Y461115D01*
X111783Y461124D01*
X111690D01*
X111635Y461115D01*
X111579D01*
X111440Y461097D01*
X111274Y461078D01*
X111098Y461041D01*
X110904Y460986D01*
X110710Y460921D01*
X110701D01*
X110682Y460912D01*
X110664Y460902D01*
X110627Y460884D01*
X110525Y460838D01*
X110414Y460782D01*
X110285Y460718D01*
X110146Y460644D01*
X110017Y460560D01*
X109906Y460468D01*
Y459266D01*
X111792D01*
Y458508D01*
X109073D01*
Y460884D01*
X109083Y460893D01*
X109101Y460902D01*
X109138Y460930D01*
X109185Y460967D01*
X109240Y461004D01*
X109305Y461050D01*
X109388Y461106D01*
X109471Y461161D01*
X109665Y461282D01*
X109887Y461411D01*
X110118Y461531D01*
X110368Y461633D01*
X110377D01*
X110396Y461642D01*
X110433Y461651D01*
X110479Y461670D01*
X110544Y461688D01*
X110618Y461716D01*
X110701Y461735D01*
X110784Y461753D01*
X110987Y461799D01*
X111219Y461846D01*
X111468Y461873D01*
X111727Y461882D01*
X111819D01*
X111884Y461873D01*
D02*
G37*
G36*
X516958Y193954D02*
X517032D01*
X517208Y193944D01*
X517411Y193917D01*
X517624Y193889D01*
X517846Y193843D01*
X518068Y193787D01*
X518077D01*
X518096Y193778D01*
X518123Y193769D01*
X518160Y193759D01*
X518262Y193722D01*
X518391Y193667D01*
X518539Y193612D01*
X518687Y193538D01*
X518844Y193445D01*
X518992Y193353D01*
X519011Y193343D01*
X519057Y193306D01*
X519122Y193251D01*
X519205Y193177D01*
X519297Y193094D01*
X519390Y192992D01*
X519492Y192890D01*
X519575Y192770D01*
X519584Y192752D01*
X519612Y192715D01*
X519649Y192650D01*
X519695Y192558D01*
X519751Y192447D01*
X519797Y192317D01*
X519852Y192169D01*
X519898Y192003D01*
Y191984D01*
X519908Y191957D01*
X519917Y191929D01*
X519926Y191836D01*
X519945Y191707D01*
X519963Y191559D01*
X519982Y191383D01*
X519991Y191189D01*
X520000Y190977D01*
Y188674D01*
X513602D01*
Y191134D01*
X513611Y191300D01*
X513621Y191485D01*
X513639Y191670D01*
X513667Y191855D01*
X513695Y192012D01*
Y192021D01*
X513704Y192040D01*
Y192068D01*
X513722Y192104D01*
X513750Y192206D01*
X513796Y192336D01*
X513861Y192484D01*
X513944Y192641D01*
X514037Y192798D01*
X514157Y192946D01*
X514166Y192955D01*
X514175Y192964D01*
X514203Y192992D01*
X514231Y193029D01*
X514323Y193121D01*
X514453Y193232D01*
X514610Y193353D01*
X514795Y193482D01*
X515008Y193602D01*
X515248Y193704D01*
X515257D01*
X515276Y193713D01*
X515313Y193732D01*
X515368Y193741D01*
X515433Y193769D01*
X515507Y193787D01*
X515590Y193806D01*
X515692Y193833D01*
X515793Y193861D01*
X515914Y193880D01*
X516172Y193926D01*
X516459Y193954D01*
X516773Y193963D01*
X516783D01*
X516801D01*
X516847D01*
X516894D01*
X516958Y193954D01*
D02*
G37*
G36*
X520000Y182720D02*
X513602D01*
Y187352D01*
X514360D01*
Y183571D01*
X516311D01*
Y187112D01*
X517069D01*
Y183571D01*
X519242D01*
Y187500D01*
X520000D01*
Y182720D01*
D02*
G37*
G36*
Y177700D02*
X513602D01*
Y178550D01*
X519242D01*
Y181703D01*
X520000D01*
Y177700D01*
D02*
G37*
G36*
X124249Y311143D02*
X129889D01*
Y310292D01*
X124249D01*
Y308184D01*
X123491D01*
Y313251D01*
X124249D01*
Y311143D01*
D02*
G37*
G36*
X127430Y307241D02*
X127522D01*
X127633Y307232D01*
X127744Y307223D01*
X127994Y307195D01*
X128253Y307158D01*
X128502Y307102D01*
X128623Y307065D01*
X128734Y307028D01*
X128743D01*
X128761Y307019D01*
X128789Y307001D01*
X128826Y306982D01*
X128928Y306927D01*
X129057Y306843D01*
X129205Y306733D01*
X129353Y306603D01*
X129510Y306437D01*
X129649Y306233D01*
Y306224D01*
X129667Y306206D01*
X129677Y306178D01*
X129704Y306132D01*
X129732Y306076D01*
X129760Y306002D01*
X129788Y305928D01*
X129824Y305836D01*
X129861Y305734D01*
X129889Y305623D01*
X129917Y305503D01*
X129945Y305364D01*
X129963Y305226D01*
X129982Y305078D01*
X130000Y304745D01*
Y304662D01*
X129991Y304597D01*
Y304523D01*
X129982Y304430D01*
X129972Y304329D01*
X129963Y304227D01*
X129926Y303996D01*
X129871Y303746D01*
X129797Y303506D01*
X129695Y303275D01*
Y303265D01*
X129677Y303247D01*
X129658Y303219D01*
X129640Y303182D01*
X129566Y303081D01*
X129464Y302960D01*
X129334Y302822D01*
X129186Y302692D01*
X129002Y302563D01*
X128798Y302461D01*
X128789D01*
X128771Y302452D01*
X128734Y302443D01*
X128687Y302424D01*
X128632Y302406D01*
X128558Y302387D01*
X128475Y302359D01*
X128373Y302341D01*
X128262Y302322D01*
X128142Y302295D01*
X128012Y302276D01*
X127874Y302258D01*
X127717Y302239D01*
X127550Y302230D01*
X127374Y302221D01*
X127190D01*
X123491D01*
Y303071D01*
X127190D01*
X127199D01*
X127226D01*
X127273D01*
X127328D01*
X127393Y303081D01*
X127476D01*
X127652Y303090D01*
X127855Y303108D01*
X128059Y303136D01*
X128253Y303173D01*
X128336Y303192D01*
X128419Y303219D01*
X128438Y303228D01*
X128484Y303247D01*
X128549Y303293D01*
X128641Y303349D01*
X128734Y303413D01*
X128835Y303506D01*
X128937Y303617D01*
X129020Y303746D01*
X129029Y303765D01*
X129057Y303811D01*
X129085Y303894D01*
X129122Y304005D01*
X129168Y304135D01*
X129196Y304301D01*
X129223Y304477D01*
X129233Y304671D01*
Y304763D01*
X129223Y304819D01*
Y304902D01*
X129214Y304985D01*
X129177Y305189D01*
X129131Y305410D01*
X129057Y305623D01*
X128955Y305826D01*
X128891Y305919D01*
X128817Y306002D01*
X128807Y306011D01*
X128798Y306021D01*
X128771Y306039D01*
X128734Y306067D01*
X128678Y306095D01*
X128623Y306132D01*
X128539Y306169D01*
X128456Y306206D01*
X128354Y306243D01*
X128234Y306270D01*
X128096Y306307D01*
X127948Y306335D01*
X127781Y306363D01*
X127605Y306381D01*
X127402Y306400D01*
X127190D01*
X123491D01*
Y307250D01*
X127190D01*
X127199D01*
X127236D01*
X127282D01*
X127347D01*
X127430Y307241D01*
D02*
G37*
G36*
X126875Y301111D02*
X126958D01*
X127060Y301102D01*
X127171Y301084D01*
X127291Y301074D01*
X127559Y301028D01*
X127855Y300954D01*
X128151Y300852D01*
X128299Y300797D01*
X128447Y300723D01*
X128456D01*
X128484Y300704D01*
X128521Y300686D01*
X128576Y300649D01*
X128641Y300612D01*
X128706Y300566D01*
X128881Y300436D01*
X129066Y300279D01*
X129261Y300094D01*
X129445Y299872D01*
X129612Y299613D01*
Y299604D01*
X129630Y299586D01*
X129649Y299540D01*
X129677Y299484D01*
X129704Y299419D01*
X129732Y299345D01*
X129769Y299253D01*
X129806Y299151D01*
X129843Y299040D01*
X129880Y298920D01*
X129935Y298652D01*
X129982Y298365D01*
X130000Y298060D01*
Y297968D01*
X129991Y297912D01*
Y297829D01*
X129972Y297737D01*
X129963Y297635D01*
X129945Y297515D01*
X129889Y297265D01*
X129815Y296997D01*
X129704Y296719D01*
X129640Y296581D01*
X129566Y296442D01*
X129556Y296433D01*
X129547Y296414D01*
X129519Y296378D01*
X129482Y296322D01*
X129445Y296266D01*
X129390Y296202D01*
X129251Y296045D01*
X129085Y295869D01*
X128881Y295684D01*
X128650Y295518D01*
X128382Y295360D01*
X128373D01*
X128345Y295342D01*
X128308Y295324D01*
X128253Y295305D01*
X128179Y295277D01*
X128096Y295250D01*
X128003Y295212D01*
X127901Y295185D01*
X127781Y295148D01*
X127661Y295111D01*
X127384Y295055D01*
X127097Y295018D01*
X126783Y295000D01*
X126773D01*
X126764D01*
X126709D01*
X126625Y295009D01*
X126515D01*
X126385Y295028D01*
X126228Y295046D01*
X126052Y295074D01*
X125867Y295111D01*
X125673Y295148D01*
X125470Y295203D01*
X125266Y295277D01*
X125054Y295360D01*
X124850Y295453D01*
X124647Y295573D01*
X124462Y295702D01*
X124286Y295851D01*
X124277Y295860D01*
X124249Y295887D01*
X124203Y295943D01*
X124148Y296008D01*
X124074Y296091D01*
X124000Y296192D01*
X123917Y296313D01*
X123833Y296451D01*
X123750Y296599D01*
X123667Y296766D01*
X123593Y296951D01*
X123519Y297145D01*
X123463Y297358D01*
X123417Y297579D01*
X123390Y297810D01*
X123380Y298060D01*
Y298143D01*
X123390Y298208D01*
Y298291D01*
X123399Y298375D01*
X123417Y298486D01*
X123436Y298596D01*
X123482Y298837D01*
X123556Y299114D01*
X123667Y299382D01*
X123732Y299521D01*
X123806Y299660D01*
X123815Y299669D01*
X123824Y299687D01*
X123852Y299724D01*
X123880Y299780D01*
X123926Y299835D01*
X123981Y299909D01*
X124111Y300067D01*
X124277Y300233D01*
X124480Y300418D01*
X124721Y300593D01*
X124989Y300741D01*
X124998D01*
X125026Y300760D01*
X125063Y300778D01*
X125119Y300797D01*
X125192Y300834D01*
X125276Y300862D01*
X125377Y300899D01*
X125488Y300935D01*
X125609Y300963D01*
X125738Y301000D01*
X125886Y301037D01*
X126034Y301065D01*
X126357Y301102D01*
X126709Y301120D01*
X126718D01*
X126755D01*
X126801D01*
X126875Y301111D01*
D02*
G37*
G36*
X216500Y282541D02*
X216490Y282374D01*
X216481Y282190D01*
X216463Y282005D01*
X216435Y281820D01*
X216407Y281663D01*
Y281653D01*
X216398Y281635D01*
Y281607D01*
X216379Y281570D01*
X216352Y281468D01*
X216305Y281339D01*
X216241Y281191D01*
X216157Y281034D01*
X216065Y280877D01*
X215945Y280729D01*
X215936Y280719D01*
X215926Y280710D01*
X215899Y280682D01*
X215871Y280646D01*
X215778Y280553D01*
X215649Y280442D01*
X215492Y280322D01*
X215307Y280192D01*
X215094Y280072D01*
X214854Y279970D01*
X214845D01*
X214826Y279961D01*
X214789Y279943D01*
X214734Y279934D01*
X214669Y279906D01*
X214595Y279887D01*
X214512Y279869D01*
X214410Y279841D01*
X214308Y279813D01*
X214188Y279795D01*
X213929Y279749D01*
X213643Y279721D01*
X213328Y279712D01*
X213319D01*
X213301D01*
X213254D01*
X213208D01*
X213143Y279721D01*
X213069D01*
X212894Y279730D01*
X212690Y279758D01*
X212478Y279786D01*
X212256Y279832D01*
X212034Y279887D01*
X212025D01*
X212006Y279897D01*
X211978Y279906D01*
X211942Y279915D01*
X211840Y279952D01*
X211710Y280007D01*
X211562Y280063D01*
X211415Y280137D01*
X211257Y280229D01*
X211109Y280322D01*
X211091Y280331D01*
X211045Y280368D01*
X210980Y280424D01*
X210897Y280497D01*
X210804Y280581D01*
X210712Y280682D01*
X210610Y280784D01*
X210527Y280904D01*
X210518Y280923D01*
X210490Y280960D01*
X210453Y281024D01*
X210407Y281117D01*
X210351Y281228D01*
X210305Y281357D01*
X210250Y281505D01*
X210203Y281672D01*
Y281690D01*
X210194Y281718D01*
X210185Y281746D01*
X210176Y281838D01*
X210157Y281968D01*
X210139Y282115D01*
X210120Y282291D01*
X210111Y282485D01*
X210102Y282698D01*
Y285000D01*
X216500D01*
Y282541D01*
D02*
G37*
G36*
Y277862D02*
X215603D01*
Y278648D01*
X216500D01*
Y277862D01*
D02*
G37*
G36*
X214743D02*
X210102D01*
Y278648D01*
X214743D01*
Y277862D01*
D02*
G37*
G36*
X212542Y276947D02*
X212635D01*
X212737Y276938D01*
X212866Y276919D01*
X212995Y276901D01*
X213143Y276864D01*
X213291Y276827D01*
X213449Y276781D01*
X213615Y276725D01*
X213772Y276651D01*
X213920Y276577D01*
X214068Y276476D01*
X214207Y276374D01*
X214327Y276245D01*
X214336Y276235D01*
X214345Y276217D01*
X214373Y276180D01*
X214410Y276134D01*
X214447Y276078D01*
X214493Y276004D01*
X214540Y275930D01*
X214586Y275838D01*
X214632Y275736D01*
X214678Y275625D01*
X214761Y275375D01*
X214826Y275089D01*
X214835Y274941D01*
X214845Y274784D01*
Y274691D01*
X214835Y274627D01*
X214826Y274543D01*
X214808Y274451D01*
X214789Y274349D01*
X214771Y274229D01*
X214687Y273979D01*
X214641Y273850D01*
X214576Y273720D01*
X214512Y273591D01*
X214419Y273462D01*
X214327Y273341D01*
X214216Y273221D01*
X214207Y273212D01*
X214188Y273193D01*
X214151Y273166D01*
X214105Y273129D01*
X214040Y273083D01*
X213957Y273027D01*
X213864Y272972D01*
X213763Y272916D01*
X213652Y272861D01*
X213513Y272805D01*
X213375Y272750D01*
X213217Y272703D01*
X213051Y272666D01*
X212875Y272639D01*
X212690Y272620D01*
X212487Y272611D01*
X212478D01*
X212450D01*
X212404D01*
X212339D01*
X212265Y272620D01*
X212173Y272630D01*
X212080D01*
X211978Y272648D01*
X211747Y272676D01*
X211516Y272731D01*
X211285Y272796D01*
X211072Y272888D01*
X211063D01*
X211054Y272898D01*
X211026Y272916D01*
X210989Y272935D01*
X210897Y272999D01*
X210786Y273083D01*
X210656Y273193D01*
X210527Y273332D01*
X210397Y273489D01*
X210277Y273674D01*
Y273683D01*
X210268Y273693D01*
X210250Y273720D01*
X210231Y273767D01*
X210212Y273813D01*
X210194Y273868D01*
X210139Y274007D01*
X210092Y274164D01*
X210046Y274359D01*
X210009Y274562D01*
X210000Y274784D01*
Y274876D01*
X210009Y274950D01*
X210018Y275033D01*
X210037Y275126D01*
X210055Y275237D01*
X210074Y275348D01*
X210148Y275597D01*
X210203Y275736D01*
X210259Y275865D01*
X210333Y275995D01*
X210416Y276124D01*
X210508Y276245D01*
X210619Y276365D01*
X210629Y276374D01*
X210647Y276392D01*
X210684Y276420D01*
X210739Y276457D01*
X210804Y276503D01*
X210878Y276550D01*
X210971Y276605D01*
X211082Y276661D01*
X211202Y276716D01*
X211341Y276772D01*
X211488Y276818D01*
X211646Y276864D01*
X211821Y276901D01*
X212006Y276929D01*
X212210Y276947D01*
X212422Y276957D01*
X212441D01*
X212478D01*
X212542Y276947D01*
D02*
G37*
G36*
X212589Y271973D02*
X212663D01*
X212829Y271955D01*
X213023Y271927D01*
X213236Y271881D01*
X213458Y271825D01*
X213670Y271751D01*
X213680D01*
X213698Y271742D01*
X213726Y271723D01*
X213763Y271705D01*
X213864Y271649D01*
X213994Y271576D01*
X214133Y271483D01*
X214271Y271363D01*
X214419Y271224D01*
X214540Y271058D01*
Y271049D01*
X214549Y271039D01*
X214567Y271012D01*
X214586Y270975D01*
X214632Y270882D01*
X214697Y270753D01*
X214752Y270605D01*
X214798Y270429D01*
X214835Y270235D01*
X214845Y270032D01*
Y269958D01*
X214835Y269884D01*
X214826Y269782D01*
X214798Y269662D01*
X214771Y269532D01*
X214724Y269403D01*
X214660Y269283D01*
X214650Y269264D01*
X214632Y269227D01*
X214586Y269172D01*
X214540Y269098D01*
X214475Y269005D01*
X214391Y268922D01*
X214308Y268830D01*
X214207Y268746D01*
X216500D01*
Y267960D01*
X210102D01*
Y268691D01*
X210684D01*
X210675Y268700D01*
X210656Y268709D01*
X210619Y268737D01*
X210573Y268774D01*
X210527Y268820D01*
X210471Y268876D01*
X210407Y268941D01*
X210342Y269024D01*
X210277Y269107D01*
X210212Y269199D01*
X210157Y269310D01*
X210111Y269431D01*
X210065Y269551D01*
X210028Y269689D01*
X210009Y269837D01*
X210000Y269995D01*
Y270050D01*
X210009Y270087D01*
X210018Y270198D01*
X210037Y270327D01*
X210074Y270485D01*
X210129Y270660D01*
X210203Y270836D01*
X210305Y271012D01*
Y271021D01*
X210324Y271030D01*
X210361Y271085D01*
X210434Y271169D01*
X210527Y271270D01*
X210647Y271391D01*
X210795Y271511D01*
X210961Y271631D01*
X211156Y271733D01*
X211165D01*
X211183Y271742D01*
X211211Y271751D01*
X211248Y271770D01*
X211304Y271788D01*
X211368Y271816D01*
X211433Y271834D01*
X211516Y271853D01*
X211701Y271899D01*
X211914Y271945D01*
X212154Y271973D01*
X212413Y271982D01*
X212422D01*
X212441D01*
X212478D01*
X212533D01*
X212589Y271973D01*
D02*
G37*
G36*
X212570Y266971D02*
X212672Y266962D01*
X212783Y266953D01*
X212912Y266934D01*
X213042Y266907D01*
X213337Y266833D01*
X213486Y266786D01*
X213643Y266731D01*
X213791Y266657D01*
X213929Y266574D01*
X214068Y266481D01*
X214197Y266380D01*
X214207Y266370D01*
X214225Y266352D01*
X214253Y266315D01*
X214299Y266269D01*
X214345Y266213D01*
X214401Y266139D01*
X214466Y266056D01*
X214521Y265954D01*
X214586Y265853D01*
X214641Y265732D01*
X214697Y265603D01*
X214743Y265464D01*
X214789Y265316D01*
X214817Y265159D01*
X214835Y264993D01*
X214845Y264817D01*
Y264725D01*
X214835Y264660D01*
X214826Y264586D01*
X214808Y264493D01*
X214789Y264392D01*
X214761Y264272D01*
X214734Y264161D01*
X214687Y264031D01*
X214641Y263911D01*
X214576Y263782D01*
X214503Y263652D01*
X214419Y263523D01*
X214318Y263402D01*
X214207Y263291D01*
X214197Y263282D01*
X214179Y263264D01*
X214142Y263236D01*
X214086Y263199D01*
X214022Y263153D01*
X213948Y263107D01*
X213855Y263051D01*
X213744Y262996D01*
X213624Y262940D01*
X213495Y262885D01*
X213347Y262838D01*
X213190Y262792D01*
X213014Y262755D01*
X212829Y262728D01*
X212635Y262709D01*
X212422Y262700D01*
X212413D01*
X212376D01*
X212311D01*
X212219Y262709D01*
Y266176D01*
X212210D01*
X212182D01*
X212145Y266167D01*
X212089D01*
X212025Y266158D01*
X211951Y266139D01*
X211784Y266111D01*
X211599Y266056D01*
X211396Y265982D01*
X211211Y265880D01*
X211045Y265751D01*
Y265742D01*
X211026Y265732D01*
X210980Y265677D01*
X210915Y265594D01*
X210851Y265483D01*
X210777Y265335D01*
X210712Y265168D01*
X210666Y264983D01*
X210656Y264882D01*
X210647Y264771D01*
Y264697D01*
X210656Y264614D01*
X210675Y264512D01*
X210703Y264401D01*
X210739Y264272D01*
X210795Y264151D01*
X210869Y264031D01*
X210878Y264022D01*
X210915Y263976D01*
X210971Y263920D01*
X211045Y263855D01*
X211146Y263782D01*
X211276Y263698D01*
X211424Y263615D01*
X211599Y263541D01*
X211498Y262728D01*
X211488D01*
X211470Y262737D01*
X211433Y262746D01*
X211378Y262764D01*
X211322Y262792D01*
X211248Y262820D01*
X211091Y262894D01*
X210915Y262986D01*
X210730Y263116D01*
X210555Y263264D01*
X210388Y263449D01*
Y263458D01*
X210370Y263476D01*
X210351Y263504D01*
X210324Y263541D01*
X210296Y263597D01*
X210268Y263652D01*
X210231Y263726D01*
X210194Y263809D01*
X210157Y263902D01*
X210120Y263994D01*
X210065Y264225D01*
X210018Y264484D01*
X210000Y264771D01*
Y264872D01*
X210009Y264937D01*
X210018Y265020D01*
X210037Y265122D01*
X210055Y265233D01*
X210074Y265353D01*
X210148Y265612D01*
X210203Y265751D01*
X210259Y265880D01*
X210333Y266019D01*
X210416Y266148D01*
X210508Y266269D01*
X210619Y266389D01*
X210629Y266398D01*
X210647Y266416D01*
X210684Y266444D01*
X210739Y266481D01*
X210804Y266527D01*
X210878Y266574D01*
X210971Y266629D01*
X211072Y266685D01*
X211193Y266740D01*
X211322Y266796D01*
X211470Y266842D01*
X211627Y266888D01*
X211793Y266925D01*
X211978Y266953D01*
X212173Y266971D01*
X212376Y266980D01*
X212385D01*
X212432D01*
X212487D01*
X212570Y266971D01*
D02*
G37*
G36*
X549889Y574197D02*
X548558Y573356D01*
X548549D01*
X548530Y573337D01*
X548502Y573319D01*
X548465Y573291D01*
X548364Y573226D01*
X548234Y573143D01*
X548096Y573041D01*
X547948Y572940D01*
X547809Y572838D01*
X547679Y572746D01*
X547670Y572736D01*
X547633Y572709D01*
X547578Y572662D01*
X547513Y572598D01*
X547374Y572459D01*
X547310Y572385D01*
X547254Y572311D01*
X547245Y572302D01*
X547236Y572283D01*
X547217Y572246D01*
X547189Y572191D01*
X547162Y572135D01*
X547134Y572071D01*
X547088Y571923D01*
Y571913D01*
X547079Y571895D01*
Y571858D01*
X547069Y571812D01*
X547060Y571747D01*
Y571673D01*
X547051Y571572D01*
Y570480D01*
X549889D01*
Y569630D01*
X543491D01*
Y572598D01*
X543500Y572672D01*
Y572755D01*
X543510Y572949D01*
X543537Y573152D01*
X543565Y573374D01*
X543611Y573578D01*
X543639Y573679D01*
X543667Y573763D01*
Y573772D01*
X543676Y573781D01*
X543704Y573837D01*
X543741Y573920D01*
X543806Y574021D01*
X543889Y574132D01*
X544000Y574253D01*
X544129Y574364D01*
X544277Y574475D01*
X544286D01*
X544296Y574484D01*
X544351Y574521D01*
X544444Y574558D01*
X544564Y574613D01*
X544702Y574660D01*
X544869Y574706D01*
X545045Y574733D01*
X545239Y574743D01*
X545248D01*
X545266D01*
X545303D01*
X545350Y574733D01*
X545414D01*
X545479Y574724D01*
X545636Y574687D01*
X545821Y574632D01*
X546015Y574558D01*
X546209Y574447D01*
X546302Y574373D01*
X546394Y574299D01*
X546404Y574290D01*
X546413Y574280D01*
X546441Y574253D01*
X546468Y574216D01*
X546505Y574170D01*
X546542Y574114D01*
X546589Y574040D01*
X546644Y573966D01*
X546690Y573874D01*
X546736Y573772D01*
X546792Y573661D01*
X546838Y573541D01*
X546875Y573402D01*
X546921Y573263D01*
X546949Y573106D01*
X546977Y572940D01*
X546986Y572958D01*
X547005Y572995D01*
X547042Y573051D01*
X547079Y573125D01*
X547180Y573291D01*
X547245Y573374D01*
X547300Y573448D01*
X547319Y573467D01*
X547365Y573513D01*
X547439Y573587D01*
X547532Y573679D01*
X547661Y573781D01*
X547800Y573901D01*
X547966Y574021D01*
X548151Y574151D01*
X549889Y575251D01*
Y574197D01*
D02*
G37*
G36*
Y563666D02*
X543491D01*
Y568298D01*
X544249D01*
Y564517D01*
X546200D01*
Y568058D01*
X546958D01*
Y564517D01*
X549131D01*
Y568446D01*
X549889D01*
Y563666D01*
D02*
G37*
G36*
Y561105D02*
Y560273D01*
X545017Y558933D01*
X545008D01*
X544989Y558923D01*
X544961Y558914D01*
X544915Y558905D01*
X544813Y558877D01*
X544693Y558849D01*
X544564Y558812D01*
X544444Y558775D01*
X544342Y558748D01*
X544296Y558739D01*
X544268Y558729D01*
X544277D01*
X544286Y558720D01*
X544342Y558711D01*
X544425Y558692D01*
X544527Y558665D01*
X544638Y558637D01*
X544767Y558600D01*
X544897Y558572D01*
X545017Y558535D01*
X549889Y557185D01*
Y556298D01*
X543491Y554624D01*
Y555503D01*
X547689Y556455D01*
X547698D01*
X547716Y556464D01*
X547753Y556473D01*
X547800Y556483D01*
X547864Y556492D01*
X547929Y556510D01*
X548012Y556529D01*
X548105Y556547D01*
X548299Y556594D01*
X548521Y556640D01*
X548761Y556686D01*
X549002Y556732D01*
X548992D01*
X548955Y556741D01*
X548909Y556760D01*
X548835Y556769D01*
X548761Y556788D01*
X548669Y556815D01*
X548465Y556862D01*
X548262Y556917D01*
X548160Y556936D01*
X548068Y556963D01*
X547985Y556982D01*
X547911Y557000D01*
X547855Y557019D01*
X547818Y557028D01*
X543491Y558239D01*
Y559266D01*
X546736Y560172D01*
X546746D01*
X546792Y560190D01*
X546857Y560209D01*
X546940Y560227D01*
X547051Y560255D01*
X547171Y560292D01*
X547310Y560329D01*
X547467Y560366D01*
X547643Y560412D01*
X547818Y560449D01*
X548197Y560532D01*
X548595Y560615D01*
X549002Y560680D01*
X548992D01*
X548974Y560689D01*
X548937D01*
X548891Y560708D01*
X548835Y560717D01*
X548770Y560736D01*
X548687Y560745D01*
X548595Y560773D01*
X548391Y560819D01*
X548151Y560874D01*
X547892Y560930D01*
X547606Y561004D01*
X543491Y562002D01*
Y562862D01*
X549889Y561105D01*
D02*
G37*
G36*
X546875Y554116D02*
X546958D01*
X547060Y554106D01*
X547171Y554088D01*
X547291Y554079D01*
X547559Y554033D01*
X547855Y553959D01*
X548151Y553857D01*
X548299Y553801D01*
X548447Y553727D01*
X548456D01*
X548484Y553709D01*
X548521Y553690D01*
X548576Y553653D01*
X548641Y553616D01*
X548706Y553570D01*
X548881Y553441D01*
X549066Y553284D01*
X549260Y553099D01*
X549445Y552877D01*
X549612Y552618D01*
Y552609D01*
X549630Y552590D01*
X549649Y552544D01*
X549677Y552489D01*
X549704Y552424D01*
X549732Y552350D01*
X549769Y552257D01*
X549806Y552156D01*
X549843Y552045D01*
X549880Y551925D01*
X549935Y551656D01*
X549982Y551370D01*
X550000Y551065D01*
Y550972D01*
X549991Y550917D01*
Y550834D01*
X549972Y550741D01*
X549963Y550639D01*
X549945Y550519D01*
X549889Y550270D01*
X549815Y550001D01*
X549704Y549724D01*
X549640Y549585D01*
X549566Y549447D01*
X549556Y549437D01*
X549547Y549419D01*
X549519Y549382D01*
X549482Y549327D01*
X549445Y549271D01*
X549390Y549206D01*
X549251Y549049D01*
X549085Y548873D01*
X548881Y548689D01*
X548650Y548522D01*
X548382Y548365D01*
X548373D01*
X548345Y548346D01*
X548308Y548328D01*
X548253Y548310D01*
X548179Y548282D01*
X548096Y548254D01*
X548003Y548217D01*
X547901Y548189D01*
X547781Y548152D01*
X547661Y548115D01*
X547384Y548060D01*
X547097Y548023D01*
X546783Y548004D01*
X546773D01*
X546764D01*
X546709D01*
X546625Y548014D01*
X546515D01*
X546385Y548032D01*
X546228Y548051D01*
X546052Y548078D01*
X545867Y548115D01*
X545673Y548152D01*
X545470Y548208D01*
X545266Y548282D01*
X545054Y548365D01*
X544850Y548457D01*
X544647Y548578D01*
X544462Y548707D01*
X544286Y548855D01*
X544277Y548864D01*
X544249Y548892D01*
X544203Y548947D01*
X544148Y549012D01*
X544074Y549095D01*
X544000Y549197D01*
X543917Y549317D01*
X543833Y549456D01*
X543750Y549604D01*
X543667Y549770D01*
X543593Y549955D01*
X543519Y550149D01*
X543464Y550362D01*
X543417Y550584D01*
X543390Y550815D01*
X543380Y551065D01*
Y551148D01*
X543390Y551213D01*
Y551296D01*
X543399Y551379D01*
X543417Y551490D01*
X543436Y551601D01*
X543482Y551841D01*
X543556Y552119D01*
X543667Y552387D01*
X543732Y552525D01*
X543806Y552664D01*
X543815Y552673D01*
X543824Y552692D01*
X543852Y552729D01*
X543880Y552784D01*
X543926Y552840D01*
X543981Y552914D01*
X544111Y553071D01*
X544277Y553237D01*
X544481Y553422D01*
X544721Y553598D01*
X544989Y553746D01*
X544998D01*
X545026Y553764D01*
X545063Y553783D01*
X545118Y553801D01*
X545192Y553838D01*
X545276Y553866D01*
X545377Y553903D01*
X545488Y553940D01*
X545608Y553968D01*
X545738Y554005D01*
X545886Y554042D01*
X546034Y554070D01*
X546357Y554106D01*
X546709Y554125D01*
X546718D01*
X546755D01*
X546801D01*
X546875Y554116D01*
D02*
G37*
G36*
X545488Y547172D02*
X545553Y547163D01*
X545636Y547154D01*
X545729Y547135D01*
X545830Y547117D01*
X546043Y547052D01*
X546154Y547015D01*
X546274Y546960D01*
X546394Y546895D01*
X546505Y546830D01*
X546616Y546747D01*
X546727Y546655D01*
X546736Y546645D01*
X546755Y546627D01*
X546783Y546599D01*
X546810Y546553D01*
X546857Y546497D01*
X546903Y546423D01*
X546958Y546331D01*
X547005Y546229D01*
X547060Y546109D01*
X547116Y545970D01*
X547162Y545822D01*
X547199Y545647D01*
X547236Y545462D01*
X547263Y545258D01*
X547282Y545027D01*
X547291Y544787D01*
Y543150D01*
X549889D01*
Y542300D01*
X543491D01*
Y544926D01*
X543500Y545064D01*
X543510Y545221D01*
X543519Y545388D01*
X543537Y545545D01*
X543556Y545684D01*
Y545702D01*
X543574Y545767D01*
X543593Y545850D01*
X543621Y545961D01*
X543667Y546081D01*
X543722Y546211D01*
X543787Y546349D01*
X543861Y546470D01*
X543870Y546488D01*
X543898Y546525D01*
X543954Y546581D01*
X544018Y546655D01*
X544101Y546738D01*
X544212Y546821D01*
X544333Y546913D01*
X544471Y546987D01*
X544490Y546997D01*
X544536Y547015D01*
X544619Y547052D01*
X544730Y547089D01*
X544860Y547117D01*
X545008Y547154D01*
X545174Y547172D01*
X545350Y547182D01*
X545359D01*
X545387D01*
X545424D01*
X545488Y547172D01*
D02*
G37*
G36*
X211829Y625079D02*
X213808D01*
Y628083D01*
X214566D01*
Y625079D01*
X217469D01*
Y624228D01*
X211071D01*
Y628555D01*
X211829D01*
Y625079D01*
D02*
G37*
G36*
X217469Y622157D02*
X216794D01*
X216803Y622148D01*
X216831Y622129D01*
X216868Y622101D01*
X216914Y622055D01*
X216970Y622000D01*
X217044Y621935D01*
X217109Y621861D01*
X217183Y621769D01*
X217257Y621667D01*
X217321Y621556D01*
X217386Y621436D01*
X217451Y621306D01*
X217497Y621158D01*
X217534Y621011D01*
X217562Y620844D01*
X217571Y620678D01*
Y620613D01*
X217562Y620530D01*
X217552Y620428D01*
X217534Y620308D01*
X217506Y620178D01*
X217469Y620049D01*
X217414Y619910D01*
X217404Y619892D01*
X217386Y619855D01*
X217349Y619790D01*
X217303Y619716D01*
X217247Y619624D01*
X217183Y619540D01*
X217109Y619457D01*
X217025Y619383D01*
X217016Y619374D01*
X216979Y619356D01*
X216933Y619328D01*
X216859Y619291D01*
X216776Y619245D01*
X216674Y619208D01*
X216563Y619171D01*
X216443Y619143D01*
X216434D01*
X216397Y619134D01*
X216341Y619124D01*
X216267D01*
X216156Y619115D01*
X216036Y619106D01*
X215879Y619097D01*
X215703D01*
X212828D01*
Y619883D01*
X215407D01*
X215417D01*
X215435D01*
X215463D01*
X215509D01*
X215611D01*
X215740Y619892D01*
X215879D01*
X216018Y619901D01*
X216138Y619910D01*
X216239Y619929D01*
X216249D01*
X216286Y619947D01*
X216341Y619966D01*
X216415Y619994D01*
X216489Y620040D01*
X216572Y620095D01*
X216646Y620160D01*
X216720Y620243D01*
X216730Y620252D01*
X216748Y620289D01*
X216776Y620336D01*
X216803Y620410D01*
X216840Y620493D01*
X216868Y620594D01*
X216887Y620705D01*
X216896Y620835D01*
Y620900D01*
X216887Y620964D01*
X216877Y621047D01*
X216850Y621149D01*
X216822Y621260D01*
X216776Y621380D01*
X216720Y621501D01*
X216711Y621519D01*
X216683Y621556D01*
X216646Y621611D01*
X216591Y621676D01*
X216517Y621750D01*
X216434Y621824D01*
X216341Y621889D01*
X216230Y621944D01*
X216212Y621954D01*
X216175Y621963D01*
X216101Y621981D01*
X215999Y622009D01*
X215870Y622037D01*
X215713Y622055D01*
X215528Y622065D01*
X215315Y622074D01*
X212828D01*
Y622860D01*
X217469D01*
Y622157D01*
D02*
G37*
G36*
X214603Y618089D02*
X214714D01*
X214834Y618080D01*
X214964Y618070D01*
X215259Y618043D01*
X215564Y617996D01*
X215860Y617941D01*
X215999Y617904D01*
X216138Y617858D01*
X216147D01*
X216166Y617849D01*
X216203Y617830D01*
X216249Y617812D01*
X216313Y617793D01*
X216378Y617756D01*
X216535Y617682D01*
X216702Y617590D01*
X216887Y617469D01*
X217053Y617331D01*
X217210Y617164D01*
Y617155D01*
X217229Y617146D01*
X217247Y617118D01*
X217266Y617081D01*
X217293Y617035D01*
X217330Y616989D01*
X217395Y616850D01*
X217460Y616684D01*
X217525Y616489D01*
X217562Y616258D01*
X217580Y616009D01*
Y615916D01*
X217571Y615851D01*
X217562Y615778D01*
X217543Y615685D01*
X217525Y615583D01*
X217497Y615472D01*
X217460Y615361D01*
X217423Y615241D01*
X217367Y615121D01*
X217303Y615001D01*
X217229Y614881D01*
X217136Y614760D01*
X217035Y614650D01*
X216924Y614548D01*
X216914Y614538D01*
X216887Y614520D01*
X216840Y614492D01*
X216766Y614446D01*
X216683Y614400D01*
X216572Y614354D01*
X216443Y614289D01*
X216295Y614233D01*
X216129Y614178D01*
X215934Y614123D01*
X215722Y614067D01*
X215481Y614021D01*
X215222Y613975D01*
X214945Y613947D01*
X214640Y613928D01*
X214316Y613919D01*
X214307D01*
X214270D01*
X214205D01*
X214132D01*
X214030Y613928D01*
X213919D01*
X213799Y613938D01*
X213660Y613947D01*
X213373Y613975D01*
X213068Y614021D01*
X212763Y614076D01*
X212624Y614113D01*
X212486Y614150D01*
X212477D01*
X212458Y614160D01*
X212421Y614178D01*
X212375Y614197D01*
X212310Y614215D01*
X212245Y614252D01*
X212088Y614326D01*
X211922Y614418D01*
X211746Y614538D01*
X211570Y614677D01*
X211423Y614844D01*
Y614853D01*
X211404Y614862D01*
X211385Y614890D01*
X211367Y614927D01*
X211330Y614973D01*
X211302Y615029D01*
X211228Y615167D01*
X211164Y615334D01*
X211099Y615528D01*
X211062Y615759D01*
X211043Y616009D01*
Y616092D01*
X211053Y616194D01*
X211071Y616314D01*
X211099Y616452D01*
X211136Y616600D01*
X211182Y616758D01*
X211256Y616905D01*
Y616915D01*
X211265Y616924D01*
X211293Y616970D01*
X211339Y617044D01*
X211404Y617137D01*
X211497Y617238D01*
X211598Y617349D01*
X211718Y617451D01*
X211857Y617553D01*
X211875Y617562D01*
X211922Y617599D01*
X212005Y617636D01*
X212125Y617701D01*
X212264Y617756D01*
X212421Y617830D01*
X212606Y617895D01*
X212809Y617950D01*
X212819D01*
X212837Y617959D01*
X212865Y617969D01*
X212911Y617978D01*
X212966Y617987D01*
X213031Y617996D01*
X213114Y618015D01*
X213207Y618024D01*
X213309Y618043D01*
X213420Y618052D01*
X213549Y618061D01*
X213678Y618080D01*
X213826Y618089D01*
X213974D01*
X214141Y618098D01*
X214316D01*
X214326D01*
X214363D01*
X214427D01*
X214501D01*
X214603Y618089D01*
D02*
G37*
G36*
X217469Y608834D02*
X217460D01*
X217423D01*
X217367D01*
X217293Y608843D01*
X217210Y608853D01*
X217118Y608871D01*
X217025Y608890D01*
X216924Y608927D01*
X216914D01*
X216905Y608936D01*
X216850Y608954D01*
X216766Y608991D01*
X216656Y609047D01*
X216526Y609121D01*
X216378Y609213D01*
X216230Y609315D01*
X216073Y609444D01*
X216064D01*
X216055Y609463D01*
X215999Y609509D01*
X215916Y609592D01*
X215796Y609712D01*
X215657Y609851D01*
X215491Y610027D01*
X215306Y610239D01*
X215112Y610471D01*
X215102Y610480D01*
X215075Y610517D01*
X215028Y610572D01*
X214973Y610637D01*
X214899Y610720D01*
X214816Y610822D01*
X214723Y610924D01*
X214622Y611044D01*
X214400Y611275D01*
X214178Y611506D01*
X214067Y611617D01*
X213956Y611719D01*
X213854Y611811D01*
X213752Y611885D01*
X213743D01*
X213734Y611904D01*
X213706Y611922D01*
X213669Y611940D01*
X213568Y612005D01*
X213447Y612079D01*
X213299Y612144D01*
X213142Y612209D01*
X212966Y612246D01*
X212800Y612264D01*
X212791D01*
X212782D01*
X212726Y612255D01*
X212634Y612246D01*
X212532Y612218D01*
X212402Y612181D01*
X212273Y612116D01*
X212144Y612033D01*
X212014Y611922D01*
X211996Y611904D01*
X211959Y611857D01*
X211912Y611793D01*
X211848Y611691D01*
X211792Y611562D01*
X211737Y611413D01*
X211700Y611238D01*
X211691Y611044D01*
Y610988D01*
X211700Y610951D01*
X211709Y610840D01*
X211737Y610711D01*
X211774Y610572D01*
X211839Y610415D01*
X211922Y610267D01*
X212033Y610128D01*
X212051Y610110D01*
X212097Y610073D01*
X212171Y610017D01*
X212282Y609962D01*
X212412Y609897D01*
X212578Y609842D01*
X212763Y609805D01*
X212976Y609786D01*
X212893Y608982D01*
X212883D01*
X212856Y608991D01*
X212809D01*
X212745Y609000D01*
X212671Y609019D01*
X212588Y609037D01*
X212486Y609065D01*
X212384Y609093D01*
X212162Y609167D01*
X211940Y609278D01*
X211829Y609342D01*
X211718Y609426D01*
X211617Y609509D01*
X211524Y609601D01*
X211515Y609611D01*
X211506Y609629D01*
X211478Y609657D01*
X211450Y609703D01*
X211413Y609759D01*
X211376Y609823D01*
X211330Y609897D01*
X211284Y609990D01*
X211238Y610091D01*
X211191Y610202D01*
X211154Y610323D01*
X211117Y610452D01*
X211090Y610591D01*
X211062Y610739D01*
X211053Y610896D01*
X211043Y611062D01*
Y611155D01*
X211053Y611219D01*
X211062Y611293D01*
X211071Y611386D01*
X211090Y611488D01*
X211108Y611589D01*
X211173Y611830D01*
X211265Y612070D01*
X211321Y612190D01*
X211385Y612310D01*
X211469Y612421D01*
X211561Y612523D01*
X211570Y612532D01*
X211580Y612551D01*
X211617Y612569D01*
X211654Y612606D01*
X211700Y612652D01*
X211765Y612699D01*
X211829Y612745D01*
X211912Y612800D01*
X212088Y612893D01*
X212310Y612985D01*
X212421Y613022D01*
X212551Y613041D01*
X212680Y613059D01*
X212819Y613069D01*
X212837D01*
X212883D01*
X212957Y613059D01*
X213059Y613050D01*
X213170Y613032D01*
X213299Y612994D01*
X213438Y612957D01*
X213577Y612902D01*
X213595Y612893D01*
X213641Y612874D01*
X213715Y612837D01*
X213817Y612782D01*
X213928Y612708D01*
X214067Y612616D01*
X214205Y612505D01*
X214363Y612375D01*
X214381Y612357D01*
X214437Y612310D01*
X214483Y612264D01*
X214529Y612218D01*
X214585Y612162D01*
X214659Y612089D01*
X214732Y612015D01*
X214816Y611922D01*
X214908Y611830D01*
X215010Y611719D01*
X215112Y611598D01*
X215232Y611469D01*
X215352Y611321D01*
X215481Y611173D01*
X215491Y611164D01*
X215509Y611145D01*
X215537Y611108D01*
X215574Y611062D01*
X215629Y611007D01*
X215685Y610942D01*
X215805Y610794D01*
X215944Y610637D01*
X216082Y610489D01*
X216203Y610359D01*
X216249Y610304D01*
X216295Y610258D01*
X216304Y610249D01*
X216332Y610221D01*
X216369Y610184D01*
X216424Y610138D01*
X216489Y610091D01*
X216554Y610036D01*
X216711Y609925D01*
Y613078D01*
X217469D01*
Y608834D01*
D02*
G37*
G36*
Y603860D02*
X217460D01*
X217423D01*
X217367D01*
X217293Y603869D01*
X217210Y603878D01*
X217118Y603897D01*
X217025Y603915D01*
X216924Y603952D01*
X216914D01*
X216905Y603962D01*
X216850Y603980D01*
X216766Y604017D01*
X216656Y604072D01*
X216526Y604146D01*
X216378Y604239D01*
X216230Y604341D01*
X216073Y604470D01*
X216064D01*
X216055Y604489D01*
X215999Y604535D01*
X215916Y604618D01*
X215796Y604738D01*
X215657Y604877D01*
X215491Y605053D01*
X215306Y605265D01*
X215112Y605496D01*
X215102Y605506D01*
X215075Y605543D01*
X215028Y605598D01*
X214973Y605663D01*
X214899Y605746D01*
X214816Y605848D01*
X214723Y605949D01*
X214622Y606070D01*
X214400Y606301D01*
X214178Y606532D01*
X214067Y606643D01*
X213956Y606744D01*
X213854Y606837D01*
X213752Y606911D01*
X213743D01*
X213734Y606929D01*
X213706Y606948D01*
X213669Y606966D01*
X213568Y607031D01*
X213447Y607105D01*
X213299Y607170D01*
X213142Y607234D01*
X212966Y607271D01*
X212800Y607290D01*
X212791D01*
X212782D01*
X212726Y607281D01*
X212634Y607271D01*
X212532Y607244D01*
X212402Y607207D01*
X212273Y607142D01*
X212144Y607059D01*
X212014Y606948D01*
X211996Y606929D01*
X211959Y606883D01*
X211912Y606819D01*
X211848Y606717D01*
X211792Y606587D01*
X211737Y606439D01*
X211700Y606264D01*
X211691Y606070D01*
Y606014D01*
X211700Y605977D01*
X211709Y605866D01*
X211737Y605737D01*
X211774Y605598D01*
X211839Y605441D01*
X211922Y605293D01*
X212033Y605154D01*
X212051Y605136D01*
X212097Y605099D01*
X212171Y605043D01*
X212282Y604988D01*
X212412Y604923D01*
X212578Y604868D01*
X212763Y604831D01*
X212976Y604812D01*
X212893Y604008D01*
X212883D01*
X212856Y604017D01*
X212809D01*
X212745Y604026D01*
X212671Y604045D01*
X212588Y604063D01*
X212486Y604091D01*
X212384Y604119D01*
X212162Y604193D01*
X211940Y604304D01*
X211829Y604368D01*
X211718Y604452D01*
X211617Y604535D01*
X211524Y604627D01*
X211515Y604636D01*
X211506Y604655D01*
X211478Y604683D01*
X211450Y604729D01*
X211413Y604784D01*
X211376Y604849D01*
X211330Y604923D01*
X211284Y605016D01*
X211238Y605117D01*
X211191Y605228D01*
X211154Y605348D01*
X211117Y605478D01*
X211090Y605616D01*
X211062Y605765D01*
X211053Y605922D01*
X211043Y606088D01*
Y606180D01*
X211053Y606245D01*
X211062Y606319D01*
X211071Y606412D01*
X211090Y606513D01*
X211108Y606615D01*
X211173Y606856D01*
X211265Y607096D01*
X211321Y607216D01*
X211385Y607336D01*
X211469Y607447D01*
X211561Y607549D01*
X211570Y607558D01*
X211580Y607577D01*
X211617Y607595D01*
X211654Y607632D01*
X211700Y607678D01*
X211765Y607724D01*
X211829Y607771D01*
X211912Y607826D01*
X212088Y607919D01*
X212310Y608011D01*
X212421Y608048D01*
X212551Y608067D01*
X212680Y608085D01*
X212819Y608094D01*
X212837D01*
X212883D01*
X212957Y608085D01*
X213059Y608076D01*
X213170Y608057D01*
X213299Y608020D01*
X213438Y607983D01*
X213577Y607928D01*
X213595Y607919D01*
X213641Y607900D01*
X213715Y607863D01*
X213817Y607808D01*
X213928Y607734D01*
X214067Y607641D01*
X214205Y607530D01*
X214363Y607401D01*
X214381Y607383D01*
X214437Y607336D01*
X214483Y607290D01*
X214529Y607244D01*
X214585Y607188D01*
X214659Y607114D01*
X214732Y607040D01*
X214816Y606948D01*
X214908Y606856D01*
X215010Y606744D01*
X215112Y606624D01*
X215232Y606495D01*
X215352Y606347D01*
X215481Y606199D01*
X215491Y606190D01*
X215509Y606171D01*
X215537Y606134D01*
X215574Y606088D01*
X215629Y606033D01*
X215685Y605968D01*
X215805Y605820D01*
X215944Y605663D01*
X216082Y605515D01*
X216203Y605385D01*
X216249Y605330D01*
X216295Y605284D01*
X216304Y605275D01*
X216332Y605247D01*
X216369Y605210D01*
X216424Y605163D01*
X216489Y605117D01*
X216554Y605062D01*
X216711Y604951D01*
Y608104D01*
X217469D01*
Y603860D01*
D02*
G37*
G36*
X463289Y613806D02*
X465268D01*
Y616810D01*
X466026D01*
Y613806D01*
X468929D01*
Y612955D01*
X462531D01*
Y617282D01*
X463289D01*
Y613806D01*
D02*
G37*
G36*
X468929Y610884D02*
X468254D01*
X468264Y610875D01*
X468291Y610856D01*
X468328Y610829D01*
X468374Y610782D01*
X468430Y610727D01*
X468504Y610662D01*
X468569Y610588D01*
X468643Y610496D01*
X468717Y610394D01*
X468781Y610283D01*
X468846Y610163D01*
X468911Y610033D01*
X468957Y609886D01*
X468994Y609738D01*
X469022Y609571D01*
X469031Y609405D01*
Y609340D01*
X469022Y609257D01*
X469012Y609155D01*
X468994Y609035D01*
X468966Y608905D01*
X468929Y608776D01*
X468874Y608637D01*
X468864Y608619D01*
X468846Y608582D01*
X468809Y608517D01*
X468763Y608443D01*
X468707Y608351D01*
X468643Y608268D01*
X468569Y608184D01*
X468485Y608110D01*
X468476Y608101D01*
X468439Y608083D01*
X468393Y608055D01*
X468319Y608018D01*
X468236Y607972D01*
X468134Y607935D01*
X468023Y607898D01*
X467903Y607870D01*
X467894D01*
X467857Y607861D01*
X467801Y607851D01*
X467727D01*
X467616Y607842D01*
X467496Y607833D01*
X467339Y607824D01*
X467163D01*
X464288D01*
Y608610D01*
X466867D01*
X466877D01*
X466895D01*
X466923D01*
X466969D01*
X467071D01*
X467200Y608619D01*
X467339D01*
X467478Y608628D01*
X467598Y608637D01*
X467700Y608656D01*
X467709D01*
X467746Y608674D01*
X467801Y608693D01*
X467875Y608721D01*
X467949Y608767D01*
X468032Y608822D01*
X468106Y608887D01*
X468180Y608970D01*
X468190Y608979D01*
X468208Y609016D01*
X468236Y609063D01*
X468264Y609137D01*
X468300Y609220D01*
X468328Y609322D01*
X468347Y609432D01*
X468356Y609562D01*
Y609627D01*
X468347Y609691D01*
X468337Y609775D01*
X468310Y609876D01*
X468282Y609987D01*
X468236Y610107D01*
X468180Y610228D01*
X468171Y610246D01*
X468143Y610283D01*
X468106Y610339D01*
X468051Y610403D01*
X467977Y610477D01*
X467894Y610551D01*
X467801Y610616D01*
X467690Y610671D01*
X467672Y610681D01*
X467635Y610690D01*
X467561Y610708D01*
X467459Y610736D01*
X467330Y610764D01*
X467173Y610782D01*
X466988Y610792D01*
X466775Y610801D01*
X464288D01*
Y611587D01*
X468929D01*
Y610884D01*
D02*
G37*
G36*
X466063Y606816D02*
X466174D01*
X466294Y606807D01*
X466424Y606797D01*
X466719Y606770D01*
X467024Y606724D01*
X467320Y606668D01*
X467459Y606631D01*
X467598Y606585D01*
X467607D01*
X467626Y606576D01*
X467663Y606557D01*
X467709Y606539D01*
X467773Y606520D01*
X467838Y606483D01*
X467995Y606409D01*
X468162Y606317D01*
X468347Y606197D01*
X468513Y606058D01*
X468670Y605891D01*
Y605882D01*
X468689Y605873D01*
X468707Y605845D01*
X468726Y605808D01*
X468754Y605762D01*
X468791Y605716D01*
X468855Y605577D01*
X468920Y605411D01*
X468985Y605216D01*
X469022Y604985D01*
X469040Y604736D01*
Y604643D01*
X469031Y604579D01*
X469022Y604505D01*
X469003Y604412D01*
X468985Y604310D01*
X468957Y604199D01*
X468920Y604089D01*
X468883Y603968D01*
X468827Y603848D01*
X468763Y603728D01*
X468689Y603608D01*
X468596Y603488D01*
X468495Y603377D01*
X468384Y603275D01*
X468374Y603266D01*
X468347Y603247D01*
X468300Y603219D01*
X468227Y603173D01*
X468143Y603127D01*
X468032Y603081D01*
X467903Y603016D01*
X467755Y602961D01*
X467589Y602905D01*
X467394Y602850D01*
X467182Y602794D01*
X466941Y602748D01*
X466683Y602702D01*
X466405Y602674D01*
X466100Y602655D01*
X465776Y602646D01*
X465767D01*
X465730D01*
X465665D01*
X465592D01*
X465490Y602655D01*
X465379D01*
X465259Y602665D01*
X465120Y602674D01*
X464833Y602702D01*
X464528Y602748D01*
X464223Y602803D01*
X464084Y602840D01*
X463946Y602877D01*
X463937D01*
X463918Y602887D01*
X463881Y602905D01*
X463835Y602924D01*
X463770Y602942D01*
X463705Y602979D01*
X463548Y603053D01*
X463382Y603145D01*
X463206Y603266D01*
X463030Y603404D01*
X462882Y603571D01*
Y603580D01*
X462864Y603589D01*
X462845Y603617D01*
X462827Y603654D01*
X462790Y603700D01*
X462762Y603756D01*
X462688Y603894D01*
X462624Y604061D01*
X462559Y604255D01*
X462522Y604486D01*
X462503Y604736D01*
Y604819D01*
X462513Y604921D01*
X462531Y605041D01*
X462559Y605180D01*
X462596Y605327D01*
X462642Y605485D01*
X462716Y605633D01*
Y605642D01*
X462725Y605651D01*
X462753Y605697D01*
X462799Y605771D01*
X462864Y605864D01*
X462957Y605965D01*
X463058Y606076D01*
X463178Y606178D01*
X463317Y606280D01*
X463335Y606289D01*
X463382Y606326D01*
X463465Y606363D01*
X463585Y606428D01*
X463724Y606483D01*
X463881Y606557D01*
X464066Y606622D01*
X464269Y606677D01*
X464279D01*
X464297Y606687D01*
X464325Y606696D01*
X464371Y606705D01*
X464426Y606714D01*
X464491Y606724D01*
X464575Y606742D01*
X464667Y606751D01*
X464769Y606770D01*
X464880Y606779D01*
X465009Y606788D01*
X465138Y606807D01*
X465286Y606816D01*
X465434D01*
X465601Y606825D01*
X465776D01*
X465786D01*
X465823D01*
X465887D01*
X465961D01*
X466063Y606816D01*
D02*
G37*
G36*
X463243Y601860D02*
X463262Y601842D01*
X463299Y601805D01*
X463354Y601768D01*
X463419Y601712D01*
X463493Y601638D01*
X463585Y601564D01*
X463696Y601481D01*
X463807Y601398D01*
X463937Y601296D01*
X464084Y601195D01*
X464232Y601093D01*
X464399Y600982D01*
X464575Y600871D01*
X464769Y600760D01*
X464963Y600649D01*
X464972Y600640D01*
X465009Y600621D01*
X465065Y600594D01*
X465148Y600547D01*
X465249Y600501D01*
X465360Y600446D01*
X465490Y600381D01*
X465638Y600316D01*
X465804Y600242D01*
X465970Y600159D01*
X466156Y600085D01*
X466350Y600011D01*
X466747Y599863D01*
X467173Y599725D01*
X467182D01*
X467210Y599715D01*
X467256Y599706D01*
X467311Y599688D01*
X467385Y599669D01*
X467478Y599651D01*
X467579Y599623D01*
X467690Y599604D01*
X467820Y599577D01*
X467958Y599549D01*
X468254Y599503D01*
X468578Y599456D01*
X468929Y599429D01*
Y598624D01*
X468920D01*
X468892D01*
X468855D01*
X468800Y598634D01*
X468726D01*
X468633Y598643D01*
X468532Y598652D01*
X468421Y598661D01*
X468291Y598680D01*
X468162Y598698D01*
X468005Y598726D01*
X467847Y598754D01*
X467681Y598782D01*
X467496Y598819D01*
X467117Y598911D01*
X467108D01*
X467071Y598920D01*
X467015Y598939D01*
X466932Y598966D01*
X466840Y598994D01*
X466729Y599031D01*
X466599Y599068D01*
X466461Y599124D01*
X466303Y599179D01*
X466146Y599235D01*
X465795Y599373D01*
X465425Y599540D01*
X465055Y599725D01*
X465046Y599734D01*
X465009Y599752D01*
X464963Y599780D01*
X464889Y599817D01*
X464806Y599863D01*
X464704Y599928D01*
X464593Y599993D01*
X464473Y600067D01*
X464205Y600242D01*
X463927Y600427D01*
X463641Y600640D01*
X463372Y600862D01*
Y597728D01*
X462614D01*
Y601870D01*
X463234D01*
X463243Y601860D01*
D02*
G37*
G36*
X467394Y595999D02*
X468929D01*
Y595213D01*
X467394D01*
Y592430D01*
X466673D01*
X462531Y595361D01*
Y595999D01*
X466673D01*
Y596868D01*
X467394D01*
Y595999D01*
D02*
G37*
G36*
X291638Y558131D02*
X291749D01*
X291869Y558121D01*
X292008Y558112D01*
X292294Y558084D01*
X292599Y558038D01*
X292904Y557983D01*
X293043Y557946D01*
X293182Y557909D01*
X293191D01*
X293210Y557900D01*
X293247Y557881D01*
X293293Y557863D01*
X293358Y557844D01*
X293422Y557807D01*
X293579Y557733D01*
X293746Y557641D01*
X293922Y557521D01*
X294097Y557382D01*
X294245Y557215D01*
Y557206D01*
X294264Y557197D01*
X294282Y557169D01*
X294301Y557132D01*
X294338Y557086D01*
X294365Y557030D01*
X294439Y556892D01*
X294504Y556725D01*
X294569Y556531D01*
X294606Y556300D01*
X294624Y556050D01*
Y555967D01*
X294615Y555866D01*
X294597Y555745D01*
X294569Y555607D01*
X294532Y555459D01*
X294485Y555302D01*
X294412Y555154D01*
Y555144D01*
X294402Y555135D01*
X294375Y555089D01*
X294328Y555015D01*
X294264Y554922D01*
X294171Y554821D01*
X294069Y554710D01*
X293949Y554608D01*
X293811Y554506D01*
X293792Y554497D01*
X293746Y554460D01*
X293663Y554423D01*
X293542Y554359D01*
X293404Y554303D01*
X293247Y554229D01*
X293062Y554164D01*
X292858Y554109D01*
X292849D01*
X292831Y554100D01*
X292803Y554090D01*
X292757Y554081D01*
X292701Y554072D01*
X292636Y554063D01*
X292553Y554044D01*
X292461Y554035D01*
X292359Y554016D01*
X292248Y554007D01*
X292119Y553998D01*
X291989Y553979D01*
X291841Y553970D01*
X291693D01*
X291527Y553961D01*
X291351D01*
X291342D01*
X291305D01*
X291240D01*
X291166D01*
X291065Y553970D01*
X290954D01*
X290833Y553979D01*
X290704Y553989D01*
X290408Y554016D01*
X290103Y554063D01*
X289807Y554118D01*
X289669Y554155D01*
X289530Y554201D01*
X289521D01*
X289502Y554211D01*
X289465Y554229D01*
X289419Y554248D01*
X289354Y554266D01*
X289289Y554303D01*
X289132Y554377D01*
X288966Y554469D01*
X288781Y554590D01*
X288615Y554728D01*
X288457Y554895D01*
Y554904D01*
X288439Y554913D01*
X288420Y554941D01*
X288402Y554978D01*
X288374Y555024D01*
X288337Y555070D01*
X288272Y555209D01*
X288208Y555376D01*
X288143Y555570D01*
X288106Y555801D01*
X288088Y556050D01*
Y556143D01*
X288097Y556208D01*
X288106Y556282D01*
X288125Y556374D01*
X288143Y556476D01*
X288171Y556587D01*
X288208Y556698D01*
X288245Y556818D01*
X288300Y556938D01*
X288365Y557058D01*
X288439Y557178D01*
X288531Y557299D01*
X288633Y557410D01*
X288744Y557511D01*
X288753Y557521D01*
X288781Y557539D01*
X288827Y557567D01*
X288901Y557613D01*
X288984Y557659D01*
X289095Y557705D01*
X289225Y557770D01*
X289373Y557826D01*
X289539Y557881D01*
X289733Y557937D01*
X289946Y557992D01*
X290186Y558038D01*
X290445Y558084D01*
X290723Y558112D01*
X291028Y558131D01*
X291351Y558140D01*
X291360D01*
X291397D01*
X291462D01*
X291536D01*
X291638Y558131D01*
D02*
G37*
G36*
X289095Y551825D02*
X288199D01*
Y552722D01*
X289095D01*
Y551825D01*
D02*
G37*
G36*
X293015Y550069D02*
X293034Y550050D01*
X293043Y550013D01*
X293071Y549967D01*
X293099Y549911D01*
X293136Y549847D01*
X293228Y549689D01*
X293330Y549505D01*
X293459Y549320D01*
X293607Y549126D01*
X293764Y548931D01*
X293774Y548922D01*
X293783Y548913D01*
X293811Y548885D01*
X293838Y548848D01*
X293931Y548765D01*
X294042Y548654D01*
X294171Y548543D01*
X294319Y548423D01*
X294467Y548321D01*
X294624Y548229D01*
Y547720D01*
X288199D01*
Y548506D01*
X293200D01*
X293191Y548515D01*
X293154Y548562D01*
X293099Y548617D01*
X293034Y548709D01*
X292951Y548811D01*
X292858Y548941D01*
X292757Y549089D01*
X292655Y549255D01*
Y549264D01*
X292646Y549273D01*
X292609Y549329D01*
X292562Y549421D01*
X292507Y549532D01*
X292442Y549662D01*
X292377Y549800D01*
X292313Y549939D01*
X292257Y550078D01*
X293015D01*
Y550069D01*
D02*
G37*
G36*
X292840Y544715D02*
X290260D01*
X290251D01*
X290233D01*
X290205D01*
X290159D01*
X290057D01*
X289927Y544706D01*
X289789D01*
X289650Y544697D01*
X289530Y544688D01*
X289428Y544669D01*
X289419D01*
X289382Y544651D01*
X289326Y544632D01*
X289252Y544604D01*
X289179Y544558D01*
X289095Y544503D01*
X289021Y544438D01*
X288947Y544355D01*
X288938Y544346D01*
X288920Y544309D01*
X288892Y544262D01*
X288864Y544188D01*
X288827Y544105D01*
X288799Y544003D01*
X288781Y543893D01*
X288772Y543763D01*
Y543698D01*
X288781Y543634D01*
X288790Y543550D01*
X288818Y543449D01*
X288846Y543338D01*
X288892Y543218D01*
X288947Y543097D01*
X288957Y543079D01*
X288984Y543042D01*
X289021Y542986D01*
X289077Y542922D01*
X289151Y542848D01*
X289234Y542774D01*
X289326Y542709D01*
X289437Y542654D01*
X289456Y542644D01*
X289493Y542635D01*
X289567Y542617D01*
X289669Y542589D01*
X289798Y542561D01*
X289955Y542543D01*
X290140Y542533D01*
X290353Y542524D01*
X292840D01*
Y541738D01*
X288199D01*
Y542441D01*
X288873D01*
X288864Y542450D01*
X288836Y542469D01*
X288799Y542496D01*
X288753Y542543D01*
X288698Y542598D01*
X288624Y542663D01*
X288559Y542737D01*
X288485Y542829D01*
X288411Y542931D01*
X288346Y543042D01*
X288282Y543162D01*
X288217Y543292D01*
X288171Y543439D01*
X288134Y543587D01*
X288106Y543754D01*
X288097Y543920D01*
Y543985D01*
X288106Y544068D01*
X288115Y544170D01*
X288134Y544290D01*
X288162Y544420D01*
X288199Y544549D01*
X288254Y544688D01*
X288263Y544706D01*
X288282Y544743D01*
X288319Y544808D01*
X288365Y544882D01*
X288420Y544974D01*
X288485Y545057D01*
X288559Y545141D01*
X288642Y545215D01*
X288652Y545224D01*
X288689Y545242D01*
X288735Y545270D01*
X288809Y545307D01*
X288892Y545353D01*
X288994Y545390D01*
X289105Y545427D01*
X289225Y545455D01*
X289234D01*
X289271Y545464D01*
X289326Y545474D01*
X289400D01*
X289511Y545483D01*
X289632Y545492D01*
X289789Y545501D01*
X289964D01*
X292840D01*
Y544715D01*
D02*
G37*
G36*
X294597Y536043D02*
X293838D01*
Y539519D01*
X291860D01*
Y536515D01*
X291102D01*
Y539519D01*
X288199D01*
Y540370D01*
X294597D01*
Y536043D01*
D02*
G37*
G36*
X288374Y535368D02*
X288457Y535359D01*
X288550Y535340D01*
X288642Y535322D01*
X288744Y535285D01*
X288753D01*
X288762Y535276D01*
X288818Y535257D01*
X288901Y535220D01*
X289012Y535165D01*
X289142Y535091D01*
X289289Y534998D01*
X289437Y534897D01*
X289595Y534767D01*
X289604D01*
X289613Y534749D01*
X289669Y534702D01*
X289752Y534619D01*
X289872Y534499D01*
X290011Y534360D01*
X290177Y534185D01*
X290362Y533972D01*
X290556Y533741D01*
X290565Y533732D01*
X290593Y533695D01*
X290639Y533639D01*
X290695Y533574D01*
X290769Y533491D01*
X290852Y533390D01*
X290944Y533288D01*
X291046Y533168D01*
X291268Y532937D01*
X291490Y532705D01*
X291601Y532594D01*
X291712Y532493D01*
X291814Y532400D01*
X291915Y532326D01*
X291924D01*
X291934Y532308D01*
X291961Y532289D01*
X291999Y532271D01*
X292100Y532206D01*
X292220Y532132D01*
X292368Y532067D01*
X292526Y532003D01*
X292701Y531966D01*
X292868Y531947D01*
X292877D01*
X292886D01*
X292941Y531956D01*
X293034Y531966D01*
X293136Y531993D01*
X293265Y532030D01*
X293395Y532095D01*
X293524Y532178D01*
X293653Y532289D01*
X293672Y532308D01*
X293709Y532354D01*
X293755Y532419D01*
X293820Y532520D01*
X293875Y532650D01*
X293931Y532798D01*
X293968Y532974D01*
X293977Y533168D01*
Y533223D01*
X293968Y533260D01*
X293958Y533371D01*
X293931Y533501D01*
X293894Y533639D01*
X293829Y533796D01*
X293746Y533944D01*
X293635Y534083D01*
X293616Y534101D01*
X293570Y534138D01*
X293496Y534194D01*
X293385Y534249D01*
X293256Y534314D01*
X293089Y534370D01*
X292904Y534407D01*
X292692Y534425D01*
X292775Y535229D01*
X292784D01*
X292812Y535220D01*
X292858D01*
X292923Y535211D01*
X292997Y535192D01*
X293080Y535174D01*
X293182Y535146D01*
X293284Y535118D01*
X293505Y535045D01*
X293727Y534934D01*
X293838Y534869D01*
X293949Y534786D01*
X294051Y534702D01*
X294143Y534610D01*
X294153Y534601D01*
X294162Y534582D01*
X294190Y534554D01*
X294217Y534508D01*
X294254Y534453D01*
X294291Y534388D01*
X294338Y534314D01*
X294384Y534222D01*
X294430Y534120D01*
X294476Y534009D01*
X294513Y533889D01*
X294550Y533759D01*
X294578Y533621D01*
X294606Y533473D01*
X294615Y533316D01*
X294624Y533149D01*
Y533057D01*
X294615Y532992D01*
X294606Y532918D01*
X294597Y532826D01*
X294578Y532724D01*
X294559Y532622D01*
X294495Y532382D01*
X294402Y532141D01*
X294347Y532021D01*
X294282Y531901D01*
X294199Y531790D01*
X294106Y531688D01*
X294097Y531679D01*
X294088Y531661D01*
X294051Y531642D01*
X294014Y531605D01*
X293968Y531559D01*
X293903Y531513D01*
X293838Y531466D01*
X293755Y531411D01*
X293579Y531319D01*
X293358Y531226D01*
X293247Y531189D01*
X293117Y531171D01*
X292988Y531152D01*
X292849Y531143D01*
X292831D01*
X292784D01*
X292710Y531152D01*
X292609Y531161D01*
X292498Y531180D01*
X292368Y531217D01*
X292230Y531254D01*
X292091Y531309D01*
X292072Y531319D01*
X292026Y531337D01*
X291952Y531374D01*
X291850Y531429D01*
X291740Y531503D01*
X291601Y531596D01*
X291462Y531707D01*
X291305Y531836D01*
X291287Y531855D01*
X291231Y531901D01*
X291185Y531947D01*
X291139Y531993D01*
X291083Y532049D01*
X291009Y532123D01*
X290935Y532197D01*
X290852Y532289D01*
X290760Y532382D01*
X290658Y532493D01*
X290556Y532613D01*
X290436Y532742D01*
X290316Y532890D01*
X290186Y533038D01*
X290177Y533047D01*
X290159Y533066D01*
X290131Y533103D01*
X290094Y533149D01*
X290038Y533205D01*
X289983Y533269D01*
X289863Y533417D01*
X289724Y533574D01*
X289585Y533722D01*
X289465Y533852D01*
X289419Y533907D01*
X289373Y533954D01*
X289363Y533963D01*
X289336Y533991D01*
X289299Y534027D01*
X289243Y534074D01*
X289179Y534120D01*
X289114Y534175D01*
X288957Y534286D01*
Y531134D01*
X288199D01*
Y535377D01*
X288208D01*
X288245D01*
X288300D01*
X288374Y535368D01*
D02*
G37*
G36*
X353868Y532731D02*
X353979D01*
X354099Y532721D01*
X354238Y532712D01*
X354524Y532685D01*
X354829Y532638D01*
X355135Y532583D01*
X355273Y532546D01*
X355412Y532509D01*
X355421D01*
X355440Y532500D01*
X355477Y532481D01*
X355523Y532463D01*
X355588Y532444D01*
X355652Y532407D01*
X355809Y532333D01*
X355976Y532241D01*
X356152Y532121D01*
X356327Y531982D01*
X356475Y531815D01*
Y531806D01*
X356494Y531797D01*
X356512Y531769D01*
X356531Y531732D01*
X356568Y531686D01*
X356595Y531631D01*
X356669Y531492D01*
X356734Y531325D01*
X356799Y531131D01*
X356836Y530900D01*
X356854Y530650D01*
Y530567D01*
X356845Y530466D01*
X356827Y530345D01*
X356799Y530207D01*
X356762Y530059D01*
X356716Y529902D01*
X356642Y529754D01*
Y529744D01*
X356632Y529735D01*
X356605Y529689D01*
X356558Y529615D01*
X356494Y529523D01*
X356401Y529421D01*
X356300Y529310D01*
X356179Y529208D01*
X356041Y529106D01*
X356022Y529097D01*
X355976Y529060D01*
X355893Y529023D01*
X355773Y528959D01*
X355634Y528903D01*
X355477Y528829D01*
X355292Y528764D01*
X355088Y528709D01*
X355079D01*
X355061Y528700D01*
X355033Y528690D01*
X354987Y528681D01*
X354931Y528672D01*
X354866Y528663D01*
X354783Y528644D01*
X354691Y528635D01*
X354589Y528616D01*
X354478Y528607D01*
X354349Y528598D01*
X354219Y528579D01*
X354071Y528570D01*
X353923D01*
X353757Y528561D01*
X353581D01*
X353572D01*
X353535D01*
X353470D01*
X353396D01*
X353295Y528570D01*
X353184D01*
X353064Y528579D01*
X352934Y528589D01*
X352638Y528616D01*
X352333Y528663D01*
X352037Y528718D01*
X351899Y528755D01*
X351760Y528801D01*
X351751D01*
X351732Y528811D01*
X351695Y528829D01*
X351649Y528848D01*
X351584Y528866D01*
X351520Y528903D01*
X351362Y528977D01*
X351196Y529070D01*
X351011Y529190D01*
X350845Y529328D01*
X350687Y529495D01*
Y529504D01*
X350669Y529513D01*
X350650Y529541D01*
X350632Y529578D01*
X350604Y529624D01*
X350567Y529670D01*
X350503Y529809D01*
X350438Y529976D01*
X350373Y530170D01*
X350336Y530401D01*
X350318Y530650D01*
Y530743D01*
X350327Y530808D01*
X350336Y530882D01*
X350354Y530974D01*
X350373Y531076D01*
X350401Y531187D01*
X350438Y531298D01*
X350475Y531418D01*
X350530Y531538D01*
X350595Y531658D01*
X350669Y531778D01*
X350761Y531899D01*
X350863Y532010D01*
X350974Y532111D01*
X350983Y532121D01*
X351011Y532139D01*
X351057Y532167D01*
X351131Y532213D01*
X351214Y532259D01*
X351325Y532305D01*
X351455Y532370D01*
X351603Y532426D01*
X351769Y532481D01*
X351963Y532537D01*
X352176Y532592D01*
X352416Y532638D01*
X352675Y532685D01*
X352953Y532712D01*
X353258Y532731D01*
X353581Y532740D01*
X353591D01*
X353628D01*
X353692D01*
X353766D01*
X353868Y532731D01*
D02*
G37*
G36*
X351325Y526425D02*
X350429D01*
Y527322D01*
X351325D01*
Y526425D01*
D02*
G37*
G36*
X355246Y524669D02*
X355264Y524650D01*
X355273Y524613D01*
X355301Y524567D01*
X355329Y524511D01*
X355366Y524447D01*
X355458Y524290D01*
X355560Y524105D01*
X355689Y523920D01*
X355837Y523726D01*
X355994Y523531D01*
X356004Y523522D01*
X356013Y523513D01*
X356041Y523485D01*
X356068Y523448D01*
X356161Y523365D01*
X356272Y523254D01*
X356401Y523143D01*
X356549Y523023D01*
X356697Y522921D01*
X356854Y522829D01*
Y522320D01*
X350429D01*
Y523106D01*
X355430D01*
X355421Y523115D01*
X355384Y523162D01*
X355329Y523217D01*
X355264Y523310D01*
X355181Y523411D01*
X355088Y523541D01*
X354987Y523689D01*
X354885Y523855D01*
Y523864D01*
X354876Y523873D01*
X354839Y523929D01*
X354792Y524021D01*
X354737Y524132D01*
X354672Y524262D01*
X354608Y524400D01*
X354543Y524539D01*
X354487Y524678D01*
X355246D01*
Y524669D01*
D02*
G37*
G36*
X355070Y519315D02*
X352490D01*
X352481D01*
X352463D01*
X352435D01*
X352389D01*
X352287D01*
X352157Y519306D01*
X352019D01*
X351880Y519297D01*
X351760Y519288D01*
X351658Y519269D01*
X351649D01*
X351612Y519251D01*
X351557Y519232D01*
X351483Y519204D01*
X351409Y519158D01*
X351325Y519103D01*
X351251Y519038D01*
X351177Y518955D01*
X351168Y518946D01*
X351150Y518909D01*
X351122Y518862D01*
X351094Y518788D01*
X351057Y518705D01*
X351030Y518604D01*
X351011Y518493D01*
X351002Y518363D01*
Y518298D01*
X351011Y518234D01*
X351020Y518150D01*
X351048Y518049D01*
X351076Y517938D01*
X351122Y517818D01*
X351177Y517697D01*
X351187Y517679D01*
X351214Y517642D01*
X351251Y517587D01*
X351307Y517522D01*
X351381Y517448D01*
X351464Y517374D01*
X351557Y517309D01*
X351667Y517254D01*
X351686Y517244D01*
X351723Y517235D01*
X351797Y517217D01*
X351899Y517189D01*
X352028Y517161D01*
X352185Y517143D01*
X352370Y517133D01*
X352583Y517124D01*
X355070D01*
Y516338D01*
X350429D01*
Y517041D01*
X351103D01*
X351094Y517050D01*
X351067Y517069D01*
X351030Y517096D01*
X350983Y517143D01*
X350928Y517198D01*
X350854Y517263D01*
X350789Y517337D01*
X350715Y517429D01*
X350641Y517531D01*
X350576Y517642D01*
X350512Y517762D01*
X350447Y517892D01*
X350401Y518040D01*
X350364Y518187D01*
X350336Y518354D01*
X350327Y518520D01*
Y518585D01*
X350336Y518668D01*
X350345Y518770D01*
X350364Y518890D01*
X350392Y519020D01*
X350429Y519149D01*
X350484Y519288D01*
X350493Y519306D01*
X350512Y519343D01*
X350549Y519408D01*
X350595Y519482D01*
X350650Y519574D01*
X350715Y519658D01*
X350789Y519741D01*
X350872Y519815D01*
X350882Y519824D01*
X350919Y519842D01*
X350965Y519870D01*
X351039Y519907D01*
X351122Y519953D01*
X351224Y519990D01*
X351335Y520027D01*
X351455Y520055D01*
X351464D01*
X351501Y520064D01*
X351557Y520074D01*
X351630D01*
X351741Y520083D01*
X351862Y520092D01*
X352019Y520101D01*
X352194D01*
X355070D01*
Y519315D01*
D02*
G37*
G36*
X356827Y510643D02*
X356068D01*
Y514119D01*
X354090D01*
Y511115D01*
X353332D01*
Y514119D01*
X350429D01*
Y514970D01*
X356827D01*
Y510643D01*
D02*
G37*
G36*
X355246Y509256D02*
X355264Y509238D01*
X355273Y509201D01*
X355301Y509155D01*
X355329Y509099D01*
X355366Y509034D01*
X355458Y508877D01*
X355560Y508692D01*
X355689Y508507D01*
X355837Y508313D01*
X355994Y508119D01*
X356004Y508110D01*
X356013Y508101D01*
X356041Y508073D01*
X356068Y508036D01*
X356161Y507953D01*
X356272Y507842D01*
X356401Y507731D01*
X356549Y507611D01*
X356697Y507509D01*
X356854Y507416D01*
Y506908D01*
X350429D01*
Y507694D01*
X355430D01*
X355421Y507703D01*
X355384Y507749D01*
X355329Y507805D01*
X355264Y507897D01*
X355181Y507999D01*
X355088Y508128D01*
X354987Y508276D01*
X354885Y508443D01*
Y508452D01*
X354876Y508461D01*
X354839Y508517D01*
X354792Y508609D01*
X354737Y508720D01*
X354672Y508849D01*
X354608Y508988D01*
X354543Y509127D01*
X354487Y509265D01*
X355246D01*
Y509256D01*
D02*
G37*
G36*
X536500Y432485D02*
X536490Y432421D01*
Y432347D01*
X536472Y432180D01*
X536453Y431995D01*
X536416Y431801D01*
X536370Y431607D01*
X536305Y431431D01*
Y431422D01*
X536296Y431413D01*
X536268Y431357D01*
X536222Y431274D01*
X536157Y431182D01*
X536074Y431071D01*
X535973Y430951D01*
X535843Y430840D01*
X535704Y430738D01*
X535686Y430729D01*
X535630Y430701D01*
X535556Y430655D01*
X535446Y430608D01*
X535316Y430562D01*
X535177Y430516D01*
X535020Y430488D01*
X534863Y430479D01*
X534845D01*
X534798D01*
X534715Y430488D01*
X534613Y430507D01*
X534493Y430535D01*
X534364Y430581D01*
X534234Y430636D01*
X534096Y430710D01*
X534077Y430719D01*
X534040Y430747D01*
X533966Y430803D01*
X533892Y430877D01*
X533800Y430969D01*
X533698Y431080D01*
X533606Y431219D01*
X533513Y431376D01*
Y431367D01*
X533504Y431348D01*
X533495Y431320D01*
X533476Y431283D01*
X533439Y431172D01*
X533374Y431043D01*
X533291Y430904D01*
X533190Y430747D01*
X533069Y430608D01*
X532921Y430479D01*
X532903Y430470D01*
X532848Y430433D01*
X532764Y430377D01*
X532653Y430322D01*
X532505Y430266D01*
X532348Y430211D01*
X532163Y430174D01*
X531960Y430165D01*
X531951D01*
X531941D01*
X531886D01*
X531794Y430174D01*
X531683Y430192D01*
X531553Y430211D01*
X531414Y430248D01*
X531267Y430294D01*
X531119Y430359D01*
X531100Y430368D01*
X531054Y430396D01*
X530989Y430433D01*
X530897Y430488D01*
X530804Y430562D01*
X530703Y430636D01*
X530601Y430729D01*
X530518Y430830D01*
X530508Y430840D01*
X530481Y430877D01*
X530444Y430941D01*
X530407Y431025D01*
X530351Y431126D01*
X530296Y431246D01*
X530249Y431376D01*
X530203Y431533D01*
Y431552D01*
X530185Y431607D01*
X530176Y431699D01*
X530157Y431820D01*
X530139Y431968D01*
X530120Y432143D01*
X530111Y432337D01*
X530102Y432559D01*
Y435000D01*
X536500D01*
Y432485D01*
D02*
G37*
G36*
X534743Y428334D02*
X532163D01*
X532154D01*
X532136D01*
X532108D01*
X532062D01*
X531960D01*
X531830Y428325D01*
X531692D01*
X531553Y428316D01*
X531433Y428306D01*
X531331Y428288D01*
X531322D01*
X531285Y428269D01*
X531230Y428251D01*
X531156Y428223D01*
X531082Y428177D01*
X530998Y428121D01*
X530924Y428057D01*
X530850Y427974D01*
X530841Y427964D01*
X530823Y427927D01*
X530795Y427881D01*
X530767Y427807D01*
X530730Y427724D01*
X530703Y427622D01*
X530684Y427511D01*
X530675Y427382D01*
Y427317D01*
X530684Y427252D01*
X530693Y427169D01*
X530721Y427067D01*
X530749Y426956D01*
X530795Y426836D01*
X530850Y426716D01*
X530860Y426698D01*
X530887Y426661D01*
X530924Y426605D01*
X530980Y426540D01*
X531054Y426466D01*
X531137Y426393D01*
X531230Y426328D01*
X531340Y426272D01*
X531359Y426263D01*
X531396Y426254D01*
X531470Y426235D01*
X531572Y426208D01*
X531701Y426180D01*
X531858Y426161D01*
X532043Y426152D01*
X532256Y426143D01*
X534743D01*
Y425357D01*
X530102D01*
Y426060D01*
X530776D01*
X530767Y426069D01*
X530740Y426087D01*
X530703Y426115D01*
X530656Y426161D01*
X530601Y426217D01*
X530527Y426282D01*
X530462Y426356D01*
X530388Y426448D01*
X530314Y426550D01*
X530249Y426661D01*
X530185Y426781D01*
X530120Y426910D01*
X530074Y427058D01*
X530037Y427206D01*
X530009Y427373D01*
X530000Y427539D01*
Y427604D01*
X530009Y427687D01*
X530018Y427789D01*
X530037Y427909D01*
X530065Y428038D01*
X530102Y428168D01*
X530157Y428306D01*
X530166Y428325D01*
X530185Y428362D01*
X530222Y428427D01*
X530268Y428501D01*
X530323Y428593D01*
X530388Y428676D01*
X530462Y428759D01*
X530545Y428833D01*
X530555Y428843D01*
X530592Y428861D01*
X530638Y428889D01*
X530712Y428926D01*
X530795Y428972D01*
X530897Y429009D01*
X531008Y429046D01*
X531128Y429074D01*
X531137D01*
X531174Y429083D01*
X531230Y429092D01*
X531303D01*
X531414Y429101D01*
X531535Y429111D01*
X531692Y429120D01*
X531867D01*
X534743D01*
Y428334D01*
D02*
G37*
G36*
X534133Y421603D02*
Y421687D01*
X534123Y421779D01*
Y421899D01*
X534114Y422038D01*
Y422186D01*
X534105Y422343D01*
Y424377D01*
X534743D01*
Y420586D01*
X534216D01*
X531276Y423101D01*
X530730Y423591D01*
Y423536D01*
X530740Y423499D01*
X530749Y423397D01*
X530758Y423268D01*
Y423110D01*
X530767Y422944D01*
X530776Y422593D01*
Y420448D01*
X530102D01*
Y424553D01*
X530730D01*
X534133Y421603D01*
D02*
G37*
G36*
Y417128D02*
Y417212D01*
X534123Y417304D01*
Y417424D01*
X534114Y417563D01*
Y417711D01*
X534105Y417868D01*
Y419902D01*
X534743D01*
Y416111D01*
X534216D01*
X531276Y418626D01*
X530730Y419116D01*
Y419061D01*
X530740Y419024D01*
X530749Y418922D01*
X530758Y418793D01*
Y418635D01*
X530767Y418469D01*
X530776Y418118D01*
Y415973D01*
X530102D01*
Y420078D01*
X530730D01*
X534133Y417128D01*
D02*
G37*
G36*
X532570Y415436D02*
X532672Y415427D01*
X532783Y415418D01*
X532912Y415399D01*
X533042Y415372D01*
X533338Y415298D01*
X533485Y415252D01*
X533643Y415196D01*
X533791Y415122D01*
X533929Y415039D01*
X534068Y414946D01*
X534197Y414845D01*
X534207Y414836D01*
X534225Y414817D01*
X534253Y414780D01*
X534299Y414734D01*
X534345Y414678D01*
X534401Y414604D01*
X534465Y414521D01*
X534521Y414419D01*
X534586Y414318D01*
X534641Y414198D01*
X534697Y414068D01*
X534743Y413929D01*
X534789Y413782D01*
X534817Y413624D01*
X534835Y413458D01*
X534845Y413282D01*
Y413190D01*
X534835Y413125D01*
X534826Y413051D01*
X534808Y412959D01*
X534789Y412857D01*
X534761Y412737D01*
X534734Y412626D01*
X534687Y412496D01*
X534641Y412376D01*
X534576Y412247D01*
X534502Y412117D01*
X534419Y411988D01*
X534318Y411868D01*
X534207Y411757D01*
X534197Y411747D01*
X534179Y411729D01*
X534142Y411701D01*
X534086Y411664D01*
X534022Y411618D01*
X533948Y411572D01*
X533855Y411516D01*
X533744Y411461D01*
X533624Y411405D01*
X533495Y411350D01*
X533347Y411304D01*
X533190Y411257D01*
X533014Y411220D01*
X532829Y411193D01*
X532635Y411174D01*
X532422Y411165D01*
X532413D01*
X532376D01*
X532311D01*
X532219Y411174D01*
Y414641D01*
X532210D01*
X532182D01*
X532145Y414632D01*
X532089D01*
X532025Y414623D01*
X531951Y414604D01*
X531784Y414577D01*
X531599Y414521D01*
X531396Y414447D01*
X531211Y414346D01*
X531045Y414216D01*
Y414207D01*
X531026Y414198D01*
X530980Y414142D01*
X530915Y414059D01*
X530850Y413948D01*
X530776Y413800D01*
X530712Y413633D01*
X530666Y413449D01*
X530656Y413347D01*
X530647Y413236D01*
Y413162D01*
X530656Y413079D01*
X530675Y412977D01*
X530703Y412866D01*
X530740Y412737D01*
X530795Y412617D01*
X530869Y412496D01*
X530878Y412487D01*
X530915Y412441D01*
X530971Y412385D01*
X531045Y412321D01*
X531146Y412247D01*
X531276Y412164D01*
X531424Y412080D01*
X531599Y412006D01*
X531498Y411193D01*
X531488D01*
X531470Y411202D01*
X531433Y411211D01*
X531377Y411230D01*
X531322Y411257D01*
X531248Y411285D01*
X531091Y411359D01*
X530915Y411452D01*
X530730Y411581D01*
X530555Y411729D01*
X530388Y411914D01*
Y411923D01*
X530370Y411942D01*
X530351Y411969D01*
X530323Y412006D01*
X530296Y412062D01*
X530268Y412117D01*
X530231Y412191D01*
X530194Y412274D01*
X530157Y412367D01*
X530120Y412459D01*
X530065Y412691D01*
X530018Y412949D01*
X530000Y413236D01*
Y413338D01*
X530009Y413402D01*
X530018Y413486D01*
X530037Y413587D01*
X530055Y413698D01*
X530074Y413819D01*
X530148Y414077D01*
X530203Y414216D01*
X530259Y414346D01*
X530333Y414484D01*
X530416Y414614D01*
X530508Y414734D01*
X530619Y414854D01*
X530629Y414863D01*
X530647Y414882D01*
X530684Y414909D01*
X530740Y414946D01*
X530804Y414993D01*
X530878Y415039D01*
X530971Y415094D01*
X531072Y415150D01*
X531193Y415205D01*
X531322Y415261D01*
X531470Y415307D01*
X531627Y415353D01*
X531794Y415390D01*
X531978Y415418D01*
X532173Y415436D01*
X532376Y415446D01*
X532385D01*
X532431D01*
X532487D01*
X532570Y415436D01*
D02*
G37*
G36*
X534743Y409501D02*
X534040D01*
X534049Y409492D01*
X534114Y409454D01*
X534197Y409408D01*
X534299Y409334D01*
X534401Y409260D01*
X534512Y409177D01*
X534604Y409094D01*
X534678Y409011D01*
X534687Y409002D01*
X534706Y408974D01*
X534734Y408918D01*
X534761Y408863D01*
X534789Y408789D01*
X534817Y408696D01*
X534835Y408604D01*
X534845Y408502D01*
Y408438D01*
X534835Y408354D01*
X534817Y408253D01*
X534780Y408132D01*
X534734Y408003D01*
X534669Y407855D01*
X534586Y407698D01*
X533865Y407985D01*
X533874Y407994D01*
X533892Y408031D01*
X533920Y408086D01*
X533948Y408160D01*
X533975Y408243D01*
X534003Y408345D01*
X534022Y408447D01*
X534031Y408549D01*
Y408595D01*
X534022Y408641D01*
X534012Y408706D01*
X533994Y408770D01*
X533966Y408854D01*
X533929Y408937D01*
X533874Y409011D01*
X533865Y409020D01*
X533846Y409048D01*
X533809Y409076D01*
X533763Y409122D01*
X533698Y409168D01*
X533624Y409214D01*
X533541Y409260D01*
X533439Y409297D01*
X533421Y409307D01*
X533365Y409316D01*
X533282Y409334D01*
X533171Y409362D01*
X533032Y409390D01*
X532875Y409408D01*
X532709Y409417D01*
X532524Y409427D01*
X530102D01*
Y410213D01*
X534743D01*
Y409501D01*
D02*
G37*
G36*
X131383Y183598D02*
X131374D01*
X131337D01*
X131281D01*
X131208Y183607D01*
X131124Y183616D01*
X131032Y183635D01*
X130939Y183653D01*
X130838Y183690D01*
X130828D01*
X130819Y183699D01*
X130764Y183718D01*
X130681Y183755D01*
X130570Y183811D01*
X130440Y183884D01*
X130292Y183977D01*
X130144Y184079D01*
X129987Y184208D01*
X129978D01*
X129969Y184226D01*
X129913Y184273D01*
X129830Y184356D01*
X129710Y184476D01*
X129571Y184615D01*
X129405Y184790D01*
X129220Y185003D01*
X129025Y185234D01*
X129016Y185243D01*
X128989Y185280D01*
X128942Y185336D01*
X128887Y185401D01*
X128813Y185484D01*
X128730Y185586D01*
X128637Y185687D01*
X128535Y185807D01*
X128314Y186039D01*
X128092Y186270D01*
X127981Y186381D01*
X127870Y186483D01*
X127768Y186575D01*
X127666Y186649D01*
X127657D01*
X127648Y186667D01*
X127620Y186686D01*
X127583Y186704D01*
X127481Y186769D01*
X127361Y186843D01*
X127213Y186908D01*
X127056Y186973D01*
X126881Y187010D01*
X126714Y187028D01*
X126705D01*
X126696D01*
X126640Y187019D01*
X126548Y187010D01*
X126446Y186982D01*
X126317Y186945D01*
X126187Y186880D01*
X126058Y186797D01*
X125928Y186686D01*
X125910Y186667D01*
X125873Y186621D01*
X125827Y186556D01*
X125762Y186455D01*
X125706Y186325D01*
X125651Y186177D01*
X125614Y186002D01*
X125605Y185807D01*
Y185752D01*
X125614Y185715D01*
X125623Y185604D01*
X125651Y185475D01*
X125688Y185336D01*
X125753Y185179D01*
X125836Y185031D01*
X125947Y184892D01*
X125965Y184874D01*
X126011Y184837D01*
X126085Y184781D01*
X126196Y184726D01*
X126326Y184661D01*
X126492Y184606D01*
X126677Y184569D01*
X126890Y184550D01*
X126807Y183746D01*
X126797D01*
X126770Y183755D01*
X126723D01*
X126659Y183764D01*
X126585Y183783D01*
X126502Y183801D01*
X126400Y183829D01*
X126298Y183857D01*
X126076Y183931D01*
X125854Y184042D01*
X125743Y184106D01*
X125632Y184189D01*
X125531Y184273D01*
X125438Y184365D01*
X125429Y184375D01*
X125420Y184393D01*
X125392Y184421D01*
X125364Y184467D01*
X125327Y184522D01*
X125290Y184587D01*
X125244Y184661D01*
X125198Y184753D01*
X125152Y184855D01*
X125105Y184966D01*
X125068Y185086D01*
X125031Y185216D01*
X125004Y185354D01*
X124976Y185502D01*
X124967Y185660D01*
X124958Y185826D01*
Y185919D01*
X124967Y185983D01*
X124976Y186057D01*
X124985Y186150D01*
X125004Y186251D01*
X125022Y186353D01*
X125087Y186593D01*
X125179Y186834D01*
X125235Y186954D01*
X125300Y187074D01*
X125383Y187185D01*
X125475Y187287D01*
X125485Y187296D01*
X125494Y187315D01*
X125531Y187333D01*
X125568Y187370D01*
X125614Y187416D01*
X125679Y187463D01*
X125743Y187509D01*
X125827Y187564D01*
X126002Y187657D01*
X126224Y187749D01*
X126335Y187786D01*
X126465Y187805D01*
X126594Y187823D01*
X126733Y187832D01*
X126751D01*
X126797D01*
X126871Y187823D01*
X126973Y187814D01*
X127084Y187795D01*
X127213Y187758D01*
X127352Y187721D01*
X127491Y187666D01*
X127509Y187657D01*
X127556Y187638D01*
X127629Y187601D01*
X127731Y187546D01*
X127842Y187472D01*
X127981Y187379D01*
X128119Y187268D01*
X128277Y187139D01*
X128295Y187120D01*
X128351Y187074D01*
X128397Y187028D01*
X128443Y186982D01*
X128498Y186926D01*
X128573Y186852D01*
X128646Y186778D01*
X128730Y186686D01*
X128822Y186593D01*
X128924Y186483D01*
X129025Y186362D01*
X129146Y186233D01*
X129266Y186085D01*
X129395Y185937D01*
X129405Y185928D01*
X129423Y185909D01*
X129451Y185872D01*
X129488Y185826D01*
X129543Y185770D01*
X129599Y185706D01*
X129719Y185558D01*
X129858Y185401D01*
X129996Y185253D01*
X130117Y185123D01*
X130163Y185068D01*
X130209Y185022D01*
X130218Y185012D01*
X130246Y184985D01*
X130283Y184948D01*
X130338Y184902D01*
X130403Y184855D01*
X130468Y184800D01*
X130625Y184689D01*
Y187842D01*
X131383D01*
Y183598D01*
D02*
G37*
G36*
X131882Y182766D02*
Y182757D01*
X131873Y182738D01*
X131855Y182701D01*
X131836Y182645D01*
X131809Y182581D01*
X131771Y182507D01*
X131735Y182424D01*
X131688Y182331D01*
X131577Y182128D01*
X131448Y181897D01*
X131281Y181647D01*
X131097Y181388D01*
Y181379D01*
X131115Y181360D01*
X131133Y181314D01*
X131161Y181268D01*
X131189Y181194D01*
X131226Y181120D01*
X131254Y181028D01*
X131291Y180926D01*
X131328Y180815D01*
X131365Y180695D01*
X131429Y180427D01*
X131476Y180131D01*
X131485Y179974D01*
X131494Y179816D01*
Y179733D01*
X131485Y179668D01*
Y179594D01*
X131476Y179502D01*
X131457Y179400D01*
X131439Y179289D01*
X131392Y179049D01*
X131319Y178781D01*
X131217Y178503D01*
X131152Y178374D01*
X131078Y178235D01*
X131069Y178226D01*
X131060Y178208D01*
X131032Y178171D01*
X131004Y178124D01*
X130958Y178060D01*
X130902Y177995D01*
X130773Y177838D01*
X130606Y177662D01*
X130403Y177486D01*
X130172Y177311D01*
X129904Y177154D01*
X129895D01*
X129867Y177135D01*
X129830Y177117D01*
X129774Y177098D01*
X129700Y177070D01*
X129617Y177034D01*
X129516Y176996D01*
X129405Y176969D01*
X129284Y176932D01*
X129155Y176895D01*
X129016Y176867D01*
X128859Y176830D01*
X128535Y176793D01*
X128193Y176775D01*
X128184D01*
X128147D01*
X128101D01*
X128036Y176784D01*
X127953D01*
X127851Y176793D01*
X127740Y176802D01*
X127620Y176821D01*
X127352Y176867D01*
X127065Y176932D01*
X126760Y177024D01*
X126465Y177154D01*
X126455Y177163D01*
X126427Y177172D01*
X126391Y177191D01*
X126335Y177228D01*
X126270Y177265D01*
X126196Y177311D01*
X126021Y177440D01*
X125836Y177588D01*
X125642Y177782D01*
X125448Y177995D01*
X125281Y178245D01*
X125272Y178254D01*
X125263Y178282D01*
X125244Y178319D01*
X125216Y178374D01*
X125189Y178439D01*
X125152Y178513D01*
X125115Y178605D01*
X125078Y178707D01*
X125041Y178827D01*
X125004Y178947D01*
X124939Y179215D01*
X124893Y179511D01*
X124874Y179668D01*
Y179918D01*
X124883Y179983D01*
Y180066D01*
X124893Y180149D01*
X124911Y180260D01*
X124930Y180371D01*
X124976Y180611D01*
X125050Y180889D01*
X125161Y181157D01*
X125226Y181296D01*
X125300Y181434D01*
X125309Y181444D01*
X125318Y181462D01*
X125346Y181499D01*
X125373Y181555D01*
X125420Y181610D01*
X125475Y181684D01*
X125605Y181841D01*
X125771Y182008D01*
X125975Y182192D01*
X126215Y182368D01*
X126483Y182516D01*
X126492D01*
X126520Y182535D01*
X126557Y182553D01*
X126612Y182572D01*
X126686Y182609D01*
X126770Y182636D01*
X126871Y182673D01*
X126982Y182710D01*
X127102Y182738D01*
X127232Y182775D01*
X127371Y182812D01*
X127519Y182840D01*
X127842Y182877D01*
X128184Y182895D01*
X128193D01*
X128221D01*
X128258D01*
X128314D01*
X128388Y182886D01*
X128471D01*
X128563Y182877D01*
X128656Y182867D01*
X128878Y182840D01*
X129118Y182794D01*
X129368Y182738D01*
X129608Y182655D01*
X129617D01*
X129636Y182645D01*
X129673Y182627D01*
X129710Y182609D01*
X129765Y182581D01*
X129830Y182553D01*
X129978Y182479D01*
X130154Y182377D01*
X130338Y182248D01*
X130523Y182100D01*
X130708Y181934D01*
Y181943D01*
X130727Y181961D01*
X130745Y181989D01*
X130773Y182035D01*
X130810Y182082D01*
X130847Y182146D01*
X130930Y182285D01*
X131032Y182451D01*
X131133Y182636D01*
X131217Y182830D01*
X131300Y183015D01*
X131882Y182766D01*
D02*
G37*
G36*
X131383Y174888D02*
X126030D01*
X131383Y173021D01*
Y172263D01*
X125938Y170414D01*
X131383D01*
Y169600D01*
X124985D01*
Y170867D01*
X129525Y172383D01*
X129534D01*
X129552Y172392D01*
X129580Y172401D01*
X129627Y172420D01*
X129738Y172457D01*
X129876Y172503D01*
X130033Y172549D01*
X130190Y172605D01*
X130338Y172651D01*
X130468Y172688D01*
X130449Y172697D01*
X130403Y172707D01*
X130320Y172734D01*
X130209Y172771D01*
X130061Y172817D01*
X129885Y172882D01*
X129682Y172947D01*
X129442Y173030D01*
X124985Y174565D01*
Y175702D01*
X131383D01*
Y174888D01*
D02*
G37*
G36*
X229601Y507181D02*
X228815D01*
Y510833D01*
X226957Y508938D01*
X225930D01*
X227715Y510667D01*
X225755Y513579D01*
X226726D01*
X228270Y511212D01*
X228815Y511739D01*
Y513579D01*
X229601D01*
Y507181D01*
D02*
G37*
G36*
X237598Y508577D02*
X237608Y508587D01*
X237654Y508624D01*
X237709Y508679D01*
X237802Y508744D01*
X237903Y508827D01*
X238033Y508919D01*
X238181Y509021D01*
X238347Y509123D01*
X238356D01*
X238366Y509132D01*
X238421Y509169D01*
X238514Y509215D01*
X238625Y509271D01*
X238754Y509335D01*
X238893Y509400D01*
X239031Y509465D01*
X239170Y509520D01*
Y508762D01*
X239161D01*
X239142Y508744D01*
X239105Y508734D01*
X239059Y508707D01*
X239004Y508679D01*
X238939Y508642D01*
X238782Y508549D01*
X238597Y508448D01*
X238412Y508318D01*
X238218Y508171D01*
X238024Y508013D01*
X238014Y508004D01*
X238005Y507995D01*
X237977Y507967D01*
X237940Y507939D01*
X237857Y507847D01*
X237746Y507736D01*
X237635Y507607D01*
X237515Y507458D01*
X237413Y507311D01*
X237321Y507153D01*
X236812D01*
Y513579D01*
X237598D01*
Y508577D01*
D02*
G37*
G36*
X232865Y513681D02*
X232938Y513672D01*
X233031Y513653D01*
X233133Y513635D01*
X233244Y513607D01*
X233355Y513570D01*
X233475Y513533D01*
X233595Y513477D01*
X233715Y513413D01*
X233835Y513339D01*
X233956Y513246D01*
X234067Y513145D01*
X234168Y513034D01*
X234177Y513024D01*
X234196Y512997D01*
X234224Y512950D01*
X234270Y512877D01*
X234316Y512793D01*
X234362Y512682D01*
X234427Y512553D01*
X234483Y512405D01*
X234538Y512239D01*
X234594Y512044D01*
X234649Y511832D01*
X234695Y511591D01*
X234741Y511333D01*
X234769Y511055D01*
X234788Y510750D01*
X234797Y510426D01*
Y510417D01*
Y510380D01*
Y510315D01*
Y510242D01*
X234788Y510140D01*
Y510029D01*
X234778Y509909D01*
X234769Y509770D01*
X234741Y509483D01*
X234695Y509178D01*
X234640Y508873D01*
X234603Y508734D01*
X234566Y508596D01*
Y508587D01*
X234557Y508568D01*
X234538Y508531D01*
X234520Y508485D01*
X234501Y508420D01*
X234464Y508355D01*
X234390Y508198D01*
X234298Y508032D01*
X234177Y507856D01*
X234039Y507680D01*
X233872Y507533D01*
X233863D01*
X233854Y507514D01*
X233826Y507495D01*
X233789Y507477D01*
X233743Y507440D01*
X233687Y507412D01*
X233549Y507338D01*
X233382Y507274D01*
X233188Y507209D01*
X232957Y507172D01*
X232707Y507153D01*
X232624D01*
X232523Y507163D01*
X232402Y507181D01*
X232264Y507209D01*
X232116Y507246D01*
X231959Y507292D01*
X231811Y507366D01*
X231801D01*
X231792Y507375D01*
X231746Y507403D01*
X231672Y507449D01*
X231579Y507514D01*
X231478Y507607D01*
X231367Y507708D01*
X231265Y507828D01*
X231163Y507967D01*
X231154Y507985D01*
X231117Y508032D01*
X231080Y508115D01*
X231015Y508235D01*
X230960Y508374D01*
X230886Y508531D01*
X230821Y508716D01*
X230766Y508919D01*
Y508929D01*
X230757Y508947D01*
X230747Y508975D01*
X230738Y509021D01*
X230729Y509076D01*
X230720Y509141D01*
X230701Y509225D01*
X230692Y509317D01*
X230673Y509419D01*
X230664Y509530D01*
X230655Y509659D01*
X230636Y509788D01*
X230627Y509936D01*
Y510084D01*
X230618Y510251D01*
Y510426D01*
Y510436D01*
Y510473D01*
Y510537D01*
Y510611D01*
X230627Y510713D01*
Y510824D01*
X230636Y510944D01*
X230646Y511074D01*
X230673Y511369D01*
X230720Y511674D01*
X230775Y511970D01*
X230812Y512109D01*
X230858Y512248D01*
Y512257D01*
X230868Y512276D01*
X230886Y512313D01*
X230905Y512359D01*
X230923Y512423D01*
X230960Y512488D01*
X231034Y512645D01*
X231126Y512812D01*
X231247Y512997D01*
X231385Y513163D01*
X231552Y513320D01*
X231561D01*
X231570Y513339D01*
X231598Y513357D01*
X231635Y513376D01*
X231681Y513404D01*
X231727Y513441D01*
X231866Y513505D01*
X232033Y513570D01*
X232227Y513635D01*
X232458Y513672D01*
X232707Y513690D01*
X232800D01*
X232865Y513681D01*
D02*
G37*
G36*
X430940Y193530D02*
Y193493D01*
Y193437D01*
X430931Y193363D01*
X430922Y193280D01*
X430903Y193188D01*
X430885Y193095D01*
X430848Y192994D01*
Y192984D01*
X430838Y192975D01*
X430820Y192920D01*
X430783Y192836D01*
X430727Y192726D01*
X430653Y192596D01*
X430561Y192448D01*
X430459Y192300D01*
X430330Y192143D01*
Y192134D01*
X430311Y192125D01*
X430265Y192069D01*
X430182Y191986D01*
X430062Y191866D01*
X429923Y191727D01*
X429747Y191561D01*
X429535Y191376D01*
X429304Y191182D01*
X429294Y191172D01*
X429257Y191145D01*
X429202Y191098D01*
X429137Y191043D01*
X429054Y190969D01*
X428952Y190886D01*
X428851Y190793D01*
X428730Y190692D01*
X428499Y190470D01*
X428268Y190248D01*
X428157Y190137D01*
X428055Y190026D01*
X427963Y189924D01*
X427889Y189822D01*
Y189813D01*
X427870Y189804D01*
X427852Y189776D01*
X427834Y189739D01*
X427769Y189638D01*
X427695Y189517D01*
X427630Y189369D01*
X427565Y189212D01*
X427528Y189037D01*
X427510Y188870D01*
Y188861D01*
Y188852D01*
X427519Y188796D01*
X427528Y188704D01*
X427556Y188602D01*
X427593Y188472D01*
X427658Y188343D01*
X427741Y188214D01*
X427852Y188084D01*
X427870Y188066D01*
X427917Y188029D01*
X427981Y187983D01*
X428083Y187918D01*
X428213Y187862D01*
X428361Y187807D01*
X428536Y187770D01*
X428730Y187761D01*
X428786D01*
X428823Y187770D01*
X428934Y187779D01*
X429063Y187807D01*
X429202Y187844D01*
X429359Y187909D01*
X429507Y187992D01*
X429646Y188103D01*
X429664Y188121D01*
X429701Y188167D01*
X429757Y188241D01*
X429812Y188352D01*
X429877Y188482D01*
X429932Y188648D01*
X429969Y188833D01*
X429988Y189046D01*
X430792Y188963D01*
Y188953D01*
X430783Y188926D01*
Y188879D01*
X430774Y188815D01*
X430755Y188741D01*
X430737Y188657D01*
X430709Y188556D01*
X430681Y188454D01*
X430607Y188232D01*
X430496Y188010D01*
X430432Y187899D01*
X430348Y187788D01*
X430265Y187687D01*
X430173Y187594D01*
X430163Y187585D01*
X430145Y187576D01*
X430117Y187548D01*
X430071Y187520D01*
X430015Y187483D01*
X429951Y187446D01*
X429877Y187400D01*
X429784Y187354D01*
X429683Y187308D01*
X429572Y187261D01*
X429451Y187224D01*
X429322Y187187D01*
X429183Y187160D01*
X429035Y187132D01*
X428878Y187123D01*
X428712Y187113D01*
X428619D01*
X428555Y187123D01*
X428481Y187132D01*
X428388Y187141D01*
X428287Y187160D01*
X428185Y187178D01*
X427944Y187243D01*
X427704Y187335D01*
X427584Y187391D01*
X427464Y187456D01*
X427353Y187539D01*
X427251Y187631D01*
X427242Y187640D01*
X427223Y187650D01*
X427205Y187687D01*
X427168Y187724D01*
X427122Y187770D01*
X427075Y187835D01*
X427029Y187899D01*
X426974Y187983D01*
X426881Y188158D01*
X426789Y188380D01*
X426752Y188491D01*
X426733Y188620D01*
X426715Y188750D01*
X426706Y188889D01*
Y188907D01*
Y188953D01*
X426715Y189027D01*
X426724Y189129D01*
X426743Y189240D01*
X426780Y189369D01*
X426816Y189508D01*
X426872Y189647D01*
X426881Y189665D01*
X426900Y189711D01*
X426937Y189785D01*
X426992Y189887D01*
X427066Y189998D01*
X427159Y190137D01*
X427270Y190275D01*
X427399Y190433D01*
X427417Y190451D01*
X427464Y190507D01*
X427510Y190553D01*
X427556Y190599D01*
X427612Y190655D01*
X427686Y190728D01*
X427760Y190802D01*
X427852Y190886D01*
X427944Y190978D01*
X428055Y191080D01*
X428176Y191182D01*
X428305Y191302D01*
X428453Y191422D01*
X428601Y191551D01*
X428610Y191561D01*
X428629Y191579D01*
X428666Y191607D01*
X428712Y191644D01*
X428767Y191699D01*
X428832Y191755D01*
X428980Y191875D01*
X429137Y192014D01*
X429285Y192152D01*
X429415Y192272D01*
X429470Y192319D01*
X429516Y192365D01*
X429525Y192374D01*
X429553Y192402D01*
X429590Y192439D01*
X429636Y192494D01*
X429683Y192559D01*
X429738Y192624D01*
X429849Y192781D01*
X426696D01*
Y193539D01*
X430940D01*
Y193530D01*
D02*
G37*
G36*
X425966D02*
Y193493D01*
Y193437D01*
X425957Y193363D01*
X425947Y193280D01*
X425929Y193188D01*
X425910Y193095D01*
X425873Y192994D01*
Y192984D01*
X425864Y192975D01*
X425846Y192920D01*
X425809Y192836D01*
X425753Y192726D01*
X425679Y192596D01*
X425587Y192448D01*
X425485Y192300D01*
X425356Y192143D01*
Y192134D01*
X425337Y192125D01*
X425291Y192069D01*
X425208Y191986D01*
X425088Y191866D01*
X424949Y191727D01*
X424773Y191561D01*
X424561Y191376D01*
X424329Y191182D01*
X424320Y191172D01*
X424283Y191145D01*
X424228Y191098D01*
X424163Y191043D01*
X424080Y190969D01*
X423978Y190886D01*
X423876Y190793D01*
X423756Y190692D01*
X423525Y190470D01*
X423294Y190248D01*
X423183Y190137D01*
X423081Y190026D01*
X422989Y189924D01*
X422915Y189822D01*
Y189813D01*
X422896Y189804D01*
X422878Y189776D01*
X422859Y189739D01*
X422795Y189638D01*
X422721Y189517D01*
X422656Y189369D01*
X422591Y189212D01*
X422554Y189037D01*
X422536Y188870D01*
Y188861D01*
Y188852D01*
X422545Y188796D01*
X422554Y188704D01*
X422582Y188602D01*
X422619Y188472D01*
X422684Y188343D01*
X422767Y188214D01*
X422878Y188084D01*
X422896Y188066D01*
X422943Y188029D01*
X423007Y187983D01*
X423109Y187918D01*
X423238Y187862D01*
X423386Y187807D01*
X423562Y187770D01*
X423756Y187761D01*
X423812D01*
X423849Y187770D01*
X423960Y187779D01*
X424089Y187807D01*
X424228Y187844D01*
X424385Y187909D01*
X424533Y187992D01*
X424672Y188103D01*
X424690Y188121D01*
X424727Y188167D01*
X424782Y188241D01*
X424838Y188352D01*
X424903Y188482D01*
X424958Y188648D01*
X424995Y188833D01*
X425014Y189046D01*
X425818Y188963D01*
Y188953D01*
X425809Y188926D01*
Y188879D01*
X425799Y188815D01*
X425781Y188741D01*
X425762Y188657D01*
X425735Y188556D01*
X425707Y188454D01*
X425633Y188232D01*
X425522Y188010D01*
X425457Y187899D01*
X425374Y187788D01*
X425291Y187687D01*
X425199Y187594D01*
X425189Y187585D01*
X425171Y187576D01*
X425143Y187548D01*
X425097Y187520D01*
X425041Y187483D01*
X424977Y187446D01*
X424903Y187400D01*
X424810Y187354D01*
X424709Y187308D01*
X424598Y187261D01*
X424477Y187224D01*
X424348Y187187D01*
X424209Y187160D01*
X424061Y187132D01*
X423904Y187123D01*
X423738Y187113D01*
X423645D01*
X423581Y187123D01*
X423507Y187132D01*
X423414Y187141D01*
X423312Y187160D01*
X423211Y187178D01*
X422970Y187243D01*
X422730Y187335D01*
X422610Y187391D01*
X422490Y187456D01*
X422379Y187539D01*
X422277Y187631D01*
X422268Y187640D01*
X422249Y187650D01*
X422231Y187687D01*
X422194Y187724D01*
X422147Y187770D01*
X422101Y187835D01*
X422055Y187899D01*
X422000Y187983D01*
X421907Y188158D01*
X421815Y188380D01*
X421778Y188491D01*
X421759Y188620D01*
X421741Y188750D01*
X421731Y188889D01*
Y188907D01*
Y188953D01*
X421741Y189027D01*
X421750Y189129D01*
X421768Y189240D01*
X421805Y189369D01*
X421842Y189508D01*
X421898Y189647D01*
X421907Y189665D01*
X421926Y189711D01*
X421963Y189785D01*
X422018Y189887D01*
X422092Y189998D01*
X422184Y190137D01*
X422295Y190275D01*
X422425Y190433D01*
X422443Y190451D01*
X422490Y190507D01*
X422536Y190553D01*
X422582Y190599D01*
X422637Y190655D01*
X422711Y190728D01*
X422785Y190802D01*
X422878Y190886D01*
X422970Y190978D01*
X423081Y191080D01*
X423201Y191182D01*
X423331Y191302D01*
X423479Y191422D01*
X423627Y191551D01*
X423636Y191561D01*
X423655Y191579D01*
X423691Y191607D01*
X423738Y191644D01*
X423793Y191699D01*
X423858Y191755D01*
X424006Y191875D01*
X424163Y192014D01*
X424311Y192152D01*
X424440Y192272D01*
X424496Y192319D01*
X424542Y192365D01*
X424551Y192374D01*
X424579Y192402D01*
X424616Y192439D01*
X424662Y192494D01*
X424709Y192559D01*
X424764Y192624D01*
X424875Y192781D01*
X421722D01*
Y193539D01*
X425966D01*
Y193530D01*
D02*
G37*
G36*
X418949Y193641D02*
X419022Y193632D01*
X419115Y193613D01*
X419217Y193595D01*
X419328Y193567D01*
X419439Y193530D01*
X419559Y193493D01*
X419679Y193437D01*
X419799Y193373D01*
X419919Y193299D01*
X420039Y193206D01*
X420150Y193105D01*
X420252Y192994D01*
X420261Y192984D01*
X420280Y192957D01*
X420308Y192910D01*
X420354Y192836D01*
X420400Y192753D01*
X420446Y192642D01*
X420511Y192513D01*
X420566Y192365D01*
X420622Y192199D01*
X420677Y192004D01*
X420733Y191792D01*
X420779Y191551D01*
X420825Y191292D01*
X420853Y191015D01*
X420872Y190710D01*
X420881Y190386D01*
Y190377D01*
Y190340D01*
Y190275D01*
Y190201D01*
X420872Y190100D01*
Y189989D01*
X420862Y189869D01*
X420853Y189730D01*
X420825Y189443D01*
X420779Y189138D01*
X420724Y188833D01*
X420687Y188694D01*
X420650Y188556D01*
Y188547D01*
X420640Y188528D01*
X420622Y188491D01*
X420603Y188445D01*
X420585Y188380D01*
X420548Y188315D01*
X420474Y188158D01*
X420382Y187992D01*
X420261Y187816D01*
X420123Y187640D01*
X419956Y187493D01*
X419947D01*
X419938Y187474D01*
X419910Y187456D01*
X419873Y187437D01*
X419827Y187400D01*
X419771Y187372D01*
X419633Y187298D01*
X419466Y187234D01*
X419272Y187169D01*
X419041Y187132D01*
X418791Y187113D01*
X418708D01*
X418606Y187123D01*
X418486Y187141D01*
X418348Y187169D01*
X418200Y187206D01*
X418042Y187252D01*
X417895Y187326D01*
X417885D01*
X417876Y187335D01*
X417830Y187363D01*
X417756Y187409D01*
X417663Y187474D01*
X417562Y187567D01*
X417451Y187668D01*
X417349Y187788D01*
X417247Y187927D01*
X417238Y187945D01*
X417201Y187992D01*
X417164Y188075D01*
X417099Y188195D01*
X417044Y188334D01*
X416970Y188491D01*
X416905Y188676D01*
X416850Y188879D01*
Y188889D01*
X416841Y188907D01*
X416831Y188935D01*
X416822Y188981D01*
X416813Y189037D01*
X416804Y189101D01*
X416785Y189184D01*
X416776Y189277D01*
X416757Y189379D01*
X416748Y189490D01*
X416739Y189619D01*
X416720Y189748D01*
X416711Y189896D01*
Y190044D01*
X416702Y190211D01*
Y190386D01*
Y190396D01*
Y190433D01*
Y190497D01*
Y190571D01*
X416711Y190673D01*
Y190784D01*
X416720Y190904D01*
X416730Y191034D01*
X416757Y191329D01*
X416804Y191635D01*
X416859Y191930D01*
X416896Y192069D01*
X416942Y192208D01*
Y192217D01*
X416951Y192236D01*
X416970Y192272D01*
X416988Y192319D01*
X417007Y192383D01*
X417044Y192448D01*
X417118Y192605D01*
X417210Y192772D01*
X417331Y192957D01*
X417469Y193123D01*
X417636Y193280D01*
X417645D01*
X417654Y193299D01*
X417682Y193317D01*
X417719Y193336D01*
X417765Y193363D01*
X417811Y193400D01*
X417950Y193465D01*
X418116Y193530D01*
X418311Y193595D01*
X418542Y193632D01*
X418791Y193650D01*
X418884D01*
X418949Y193641D01*
D02*
G37*
%LPC*%
G36*
X516755Y193094D02*
X516746D01*
X516709D01*
X516662D01*
X516589Y193085D01*
X516505D01*
X516413Y193075D01*
X516302Y193066D01*
X516191Y193057D01*
X515941Y193011D01*
X515682Y192955D01*
X515442Y192872D01*
X515322Y192816D01*
X515220Y192761D01*
X515211D01*
X515192Y192743D01*
X515165Y192724D01*
X515128Y192705D01*
X515035Y192631D01*
X514924Y192539D01*
X514804Y192419D01*
X514684Y192280D01*
X514582Y192123D01*
X514499Y191957D01*
X514490Y191938D01*
X514481Y191892D01*
X514453Y191809D01*
X514425Y191688D01*
X514407Y191541D01*
X514379Y191356D01*
X514370Y191245D01*
Y191124D01*
X514360Y191004D01*
Y189525D01*
X519242D01*
Y191041D01*
X519233Y191106D01*
X519224Y191245D01*
X519214Y191402D01*
X519196Y191568D01*
X519168Y191735D01*
X519131Y191873D01*
X519122Y191892D01*
X519113Y191938D01*
X519085Y192003D01*
X519048Y192086D01*
X518992Y192178D01*
X518937Y192271D01*
X518872Y192363D01*
X518798Y192456D01*
X518780Y192465D01*
X518743Y192502D01*
X518678Y192558D01*
X518586Y192622D01*
X518465Y192696D01*
X518327Y192779D01*
X518170Y192853D01*
X517994Y192918D01*
X517985D01*
X517966Y192927D01*
X517938Y192937D01*
X517901Y192946D01*
X517855Y192955D01*
X517790Y192974D01*
X517726Y192992D01*
X517652Y193011D01*
X517467Y193038D01*
X517254Y193066D01*
X517014Y193085D01*
X516755Y193094D01*
D02*
G37*
G36*
X126699Y300251D02*
X126690D01*
X126663D01*
X126625D01*
X126570D01*
X126505Y300242D01*
X126422D01*
X126339Y300233D01*
X126237Y300214D01*
X126025Y300187D01*
X125803Y300140D01*
X125562Y300076D01*
X125340Y299983D01*
X125331D01*
X125313Y299974D01*
X125285Y299956D01*
X125248Y299937D01*
X125137Y299872D01*
X125007Y299789D01*
X124860Y299678D01*
X124712Y299540D01*
X124564Y299382D01*
X124434Y299207D01*
Y299197D01*
X124416Y299188D01*
X124407Y299160D01*
X124379Y299114D01*
X124360Y299068D01*
X124333Y299013D01*
X124268Y298874D01*
X124212Y298707D01*
X124157Y298513D01*
X124120Y298291D01*
X124111Y298060D01*
Y297977D01*
X124120Y297912D01*
X124129Y297829D01*
X124148Y297746D01*
X124166Y297644D01*
X124185Y297533D01*
X124259Y297293D01*
X124314Y297163D01*
X124370Y297034D01*
X124444Y296895D01*
X124527Y296766D01*
X124619Y296636D01*
X124730Y296516D01*
X124739Y296507D01*
X124758Y296488D01*
X124795Y296461D01*
X124850Y296414D01*
X124915Y296368D01*
X124998Y296313D01*
X125100Y296257D01*
X125220Y296192D01*
X125350Y296137D01*
X125507Y296072D01*
X125673Y296017D01*
X125858Y295971D01*
X126061Y295924D01*
X126293Y295897D01*
X126533Y295878D01*
X126792Y295869D01*
X126801D01*
X126838D01*
X126903D01*
X126986Y295878D01*
X127079Y295887D01*
X127190Y295906D01*
X127319Y295924D01*
X127448Y295943D01*
X127744Y296017D01*
X127892Y296072D01*
X128049Y296128D01*
X128197Y296202D01*
X128345Y296285D01*
X128484Y296378D01*
X128613Y296488D01*
X128623Y296498D01*
X128641Y296516D01*
X128678Y296553D01*
X128715Y296599D01*
X128771Y296664D01*
X128826Y296738D01*
X128881Y296821D01*
X128946Y296914D01*
X129011Y297025D01*
X129066Y297145D01*
X129122Y297274D01*
X129177Y297413D01*
X129214Y297561D01*
X129251Y297709D01*
X129270Y297875D01*
X129279Y298051D01*
Y298097D01*
X129270Y298143D01*
Y298208D01*
X129261Y298291D01*
X129242Y298384D01*
X129223Y298495D01*
X129196Y298606D01*
X129159Y298735D01*
X129113Y298855D01*
X129066Y298994D01*
X129002Y299123D01*
X128918Y299253D01*
X128835Y299382D01*
X128734Y299512D01*
X128613Y299632D01*
X128604Y299641D01*
X128586Y299660D01*
X128539Y299687D01*
X128484Y299734D01*
X128419Y299780D01*
X128336Y299826D01*
X128234Y299881D01*
X128123Y299946D01*
X127994Y300002D01*
X127846Y300057D01*
X127689Y300103D01*
X127522Y300159D01*
X127337Y300196D01*
X127134Y300224D01*
X126921Y300242D01*
X126699Y300251D01*
D02*
G37*
G36*
X215741Y284149D02*
X210860D01*
Y282633D01*
X210869Y282568D01*
X210878Y282430D01*
X210888Y282273D01*
X210906Y282106D01*
X210934Y281940D01*
X210971Y281801D01*
X210980Y281783D01*
X210989Y281736D01*
X211017Y281672D01*
X211054Y281588D01*
X211109Y281496D01*
X211165Y281404D01*
X211229Y281311D01*
X211304Y281219D01*
X211322Y281209D01*
X211359Y281173D01*
X211424Y281117D01*
X211516Y281052D01*
X211636Y280978D01*
X211775Y280895D01*
X211932Y280821D01*
X212108Y280756D01*
X212117D01*
X212136Y280747D01*
X212163Y280738D01*
X212200Y280729D01*
X212247Y280719D01*
X212311Y280701D01*
X212376Y280682D01*
X212450Y280664D01*
X212635Y280636D01*
X212847Y280609D01*
X213088Y280590D01*
X213347Y280581D01*
X213356D01*
X213393D01*
X213439D01*
X213513Y280590D01*
X213596D01*
X213689Y280599D01*
X213800Y280609D01*
X213911Y280618D01*
X214160Y280664D01*
X214419Y280719D01*
X214660Y280803D01*
X214780Y280858D01*
X214882Y280914D01*
X214891D01*
X214909Y280932D01*
X214937Y280951D01*
X214974Y280969D01*
X215067Y281043D01*
X215177Y281136D01*
X215298Y281256D01*
X215418Y281394D01*
X215520Y281551D01*
X215603Y281718D01*
X215612Y281736D01*
X215621Y281783D01*
X215649Y281866D01*
X215677Y281986D01*
X215695Y282134D01*
X215723Y282319D01*
X215732Y282430D01*
Y282550D01*
X215741Y282670D01*
Y284149D01*
D02*
G37*
G36*
X212422Y276152D02*
X212413D01*
X212385D01*
X212339D01*
X212274Y276143D01*
X212200D01*
X212117Y276134D01*
X211923Y276106D01*
X211701Y276060D01*
X211479Y275986D01*
X211266Y275893D01*
X211174Y275828D01*
X211082Y275764D01*
Y275755D01*
X211063Y275745D01*
X211017Y275690D01*
X210943Y275607D01*
X210869Y275496D01*
X210786Y275357D01*
X210712Y275191D01*
X210666Y274996D01*
X210656Y274895D01*
X210647Y274784D01*
Y274728D01*
X210656Y274682D01*
X210675Y274580D01*
X210703Y274442D01*
X210758Y274294D01*
X210832Y274127D01*
X210943Y273970D01*
X211017Y273887D01*
X211091Y273813D01*
X211100Y273804D01*
X211109Y273794D01*
X211137Y273776D01*
X211174Y273748D01*
X211220Y273720D01*
X211276Y273683D01*
X211350Y273647D01*
X211424Y273610D01*
X211516Y273573D01*
X211618Y273545D01*
X211729Y273508D01*
X211849Y273480D01*
X211988Y273452D01*
X212126Y273434D01*
X212283Y273415D01*
X212450D01*
X212459D01*
X212487D01*
X212533D01*
X212589Y273425D01*
X212663D01*
X212746Y273434D01*
X212940Y273462D01*
X213143Y273508D01*
X213365Y273582D01*
X213569Y273683D01*
X213670Y273739D01*
X213754Y273813D01*
X213763D01*
X213772Y273832D01*
X213828Y273887D01*
X213892Y273970D01*
X213976Y274081D01*
X214059Y274220D01*
X214133Y274386D01*
X214179Y274571D01*
X214188Y274673D01*
X214197Y274784D01*
Y274839D01*
X214188Y274886D01*
X214179Y274987D01*
X214142Y275126D01*
X214086Y275283D01*
X214013Y275449D01*
X213902Y275607D01*
X213828Y275690D01*
X213754Y275764D01*
X213744D01*
X213735Y275782D01*
X213707Y275801D01*
X213670Y275828D01*
X213624Y275856D01*
X213569Y275884D01*
X213495Y275921D01*
X213421Y275958D01*
X213328Y275995D01*
X213236Y276032D01*
X213125Y276060D01*
X213005Y276087D01*
X212875Y276115D01*
X212737Y276134D01*
X212579Y276143D01*
X212422Y276152D01*
D02*
G37*
G36*
X212579Y271178D02*
X212413D01*
X212404D01*
X212376D01*
X212330D01*
X212265Y271169D01*
X212191D01*
X212108Y271159D01*
X211914Y271132D01*
X211701Y271085D01*
X211479Y271021D01*
X211266Y270928D01*
X211174Y270873D01*
X211082Y270808D01*
Y270799D01*
X211063Y270790D01*
X211017Y270743D01*
X210943Y270660D01*
X210869Y270558D01*
X210786Y270429D01*
X210712Y270272D01*
X210666Y270105D01*
X210656Y270013D01*
X210647Y269921D01*
Y269874D01*
X210656Y269837D01*
X210666Y269736D01*
X210703Y269615D01*
X210749Y269477D01*
X210823Y269329D01*
X210924Y269181D01*
X210989Y269107D01*
X211063Y269042D01*
X211072D01*
X211082Y269024D01*
X211109Y269005D01*
X211146Y268987D01*
X211193Y268959D01*
X211239Y268922D01*
X211313Y268894D01*
X211387Y268857D01*
X211470Y268820D01*
X211562Y268793D01*
X211673Y268756D01*
X211784Y268728D01*
X211914Y268709D01*
X212043Y268691D01*
X212191Y268672D01*
X212348D01*
X212358D01*
X212395D01*
X212441D01*
X212505Y268682D01*
X212579D01*
X212672Y268691D01*
X212774Y268700D01*
X212885Y268719D01*
X213106Y268765D01*
X213337Y268830D01*
X213559Y268922D01*
X213652Y268978D01*
X213744Y269042D01*
X213754D01*
X213763Y269061D01*
X213818Y269107D01*
X213892Y269190D01*
X213976Y269292D01*
X214059Y269421D01*
X214123Y269578D01*
X214179Y269754D01*
X214188Y269847D01*
X214197Y269948D01*
Y269995D01*
X214188Y270032D01*
X214179Y270133D01*
X214142Y270253D01*
X214096Y270392D01*
X214013Y270540D01*
X213911Y270688D01*
X213837Y270762D01*
X213763Y270827D01*
X213754D01*
X213744Y270845D01*
X213717Y270854D01*
X213680Y270882D01*
X213633Y270910D01*
X213578Y270938D01*
X213513Y270965D01*
X213439Y271002D01*
X213347Y271039D01*
X213245Y271067D01*
X213134Y271095D01*
X213014Y271122D01*
X212885Y271141D01*
X212737Y271159D01*
X212579Y271178D01*
D02*
G37*
G36*
X212866Y266130D02*
Y263532D01*
X212875D01*
X212894D01*
X212922Y263541D01*
X212959D01*
X213069Y263560D01*
X213190Y263587D01*
X213337Y263634D01*
X213476Y263680D01*
X213615Y263754D01*
X213735Y263837D01*
X213744D01*
X213754Y263855D01*
X213809Y263902D01*
X213883Y263985D01*
X213966Y264096D01*
X214049Y264235D01*
X214123Y264401D01*
X214179Y264595D01*
X214188Y264697D01*
X214197Y264808D01*
Y264863D01*
X214188Y264900D01*
X214179Y265002D01*
X214151Y265122D01*
X214105Y265270D01*
X214040Y265427D01*
X213948Y265575D01*
X213828Y265723D01*
X213809Y265742D01*
X213763Y265779D01*
X213680Y265843D01*
X213569Y265908D01*
X213439Y265982D01*
X213273Y266047D01*
X213079Y266102D01*
X212866Y266130D01*
D02*
G37*
G36*
X545248Y573874D02*
X545239D01*
X545229D01*
X545174Y573864D01*
X545091Y573855D01*
X544980Y573837D01*
X544869Y573790D01*
X544739Y573735D01*
X544619Y573652D01*
X544499Y573541D01*
X544490Y573522D01*
X544453Y573476D01*
X544407Y573402D01*
X544351Y573282D01*
X544296Y573143D01*
X544249Y572958D01*
X544212Y572746D01*
X544203Y572496D01*
Y570480D01*
X546320D01*
Y572385D01*
X546311Y572496D01*
X546302Y572625D01*
X546293Y572773D01*
X546274Y572921D01*
X546246Y573069D01*
X546209Y573199D01*
X546200Y573217D01*
X546182Y573254D01*
X546154Y573310D01*
X546117Y573384D01*
X546062Y573467D01*
X545997Y573550D01*
X545914Y573633D01*
X545821Y573698D01*
X545812Y573707D01*
X545775Y573726D01*
X545719Y573753D01*
X545645Y573790D01*
X545562Y573818D01*
X545470Y573846D01*
X545359Y573864D01*
X545248Y573874D01*
D02*
G37*
G36*
X546699Y553256D02*
X546690D01*
X546662D01*
X546625D01*
X546570D01*
X546505Y553247D01*
X546422D01*
X546339Y553237D01*
X546237Y553219D01*
X546025Y553191D01*
X545803Y553145D01*
X545562Y553080D01*
X545340Y552988D01*
X545331D01*
X545313Y552979D01*
X545285Y552960D01*
X545248Y552942D01*
X545137Y552877D01*
X545008Y552794D01*
X544860Y552683D01*
X544712Y552544D01*
X544564Y552387D01*
X544434Y552211D01*
Y552202D01*
X544416Y552193D01*
X544407Y552165D01*
X544379Y552119D01*
X544360Y552072D01*
X544333Y552017D01*
X544268Y551878D01*
X544212Y551712D01*
X544157Y551518D01*
X544120Y551296D01*
X544111Y551065D01*
Y550981D01*
X544120Y550917D01*
X544129Y550834D01*
X544148Y550750D01*
X544166Y550649D01*
X544185Y550538D01*
X544259Y550297D01*
X544314Y550168D01*
X544370Y550038D01*
X544444Y549900D01*
X544527Y549770D01*
X544619Y549641D01*
X544730Y549521D01*
X544739Y549511D01*
X544758Y549493D01*
X544795Y549465D01*
X544850Y549419D01*
X544915Y549373D01*
X544998Y549317D01*
X545100Y549262D01*
X545220Y549197D01*
X545350Y549142D01*
X545507Y549077D01*
X545673Y549021D01*
X545858Y548975D01*
X546062Y548929D01*
X546293Y548901D01*
X546533Y548883D01*
X546792Y548873D01*
X546801D01*
X546838D01*
X546903D01*
X546986Y548883D01*
X547079Y548892D01*
X547189Y548910D01*
X547319Y548929D01*
X547448Y548947D01*
X547744Y549021D01*
X547892Y549077D01*
X548049Y549132D01*
X548197Y549206D01*
X548345Y549290D01*
X548484Y549382D01*
X548613Y549493D01*
X548623Y549502D01*
X548641Y549521D01*
X548678Y549558D01*
X548715Y549604D01*
X548770Y549669D01*
X548826Y549743D01*
X548881Y549826D01*
X548946Y549918D01*
X549011Y550029D01*
X549066Y550149D01*
X549122Y550279D01*
X549177Y550418D01*
X549214Y550565D01*
X549251Y550713D01*
X549270Y550880D01*
X549279Y551055D01*
Y551102D01*
X549270Y551148D01*
Y551213D01*
X549260Y551296D01*
X549242Y551388D01*
X549224Y551499D01*
X549196Y551610D01*
X549159Y551740D01*
X549113Y551860D01*
X549066Y551998D01*
X549002Y552128D01*
X548918Y552257D01*
X548835Y552387D01*
X548733Y552516D01*
X548613Y552636D01*
X548604Y552646D01*
X548586Y552664D01*
X548539Y552692D01*
X548484Y552738D01*
X548419Y552784D01*
X548336Y552831D01*
X548234Y552886D01*
X548123Y552951D01*
X547994Y553006D01*
X547846Y553062D01*
X547689Y553108D01*
X547522Y553163D01*
X547337Y553200D01*
X547134Y553228D01*
X546921Y553247D01*
X546699Y553256D01*
D02*
G37*
G36*
X545377Y546312D02*
X545368D01*
X545359D01*
X545313D01*
X545229Y546303D01*
X545137Y546285D01*
X545035Y546266D01*
X544915Y546229D01*
X544804Y546174D01*
X544693Y546109D01*
X544684Y546100D01*
X544647Y546072D01*
X544601Y546026D01*
X544536Y545970D01*
X544471Y545887D01*
X544416Y545795D01*
X544360Y545693D01*
X544314Y545573D01*
Y545564D01*
X544305Y545527D01*
X544296Y545471D01*
X544277Y545397D01*
X544268Y545286D01*
X544259Y545148D01*
X544249Y544981D01*
Y543150D01*
X546533D01*
Y544870D01*
X546524Y544935D01*
Y545000D01*
X546515Y545074D01*
X546496Y545249D01*
X546459Y545443D01*
X546404Y545638D01*
X546330Y545813D01*
X546283Y545896D01*
X546228Y545961D01*
X546209Y545980D01*
X546172Y546017D01*
X546099Y546072D01*
X546006Y546137D01*
X545886Y546202D01*
X545738Y546257D01*
X545572Y546294D01*
X545377Y546312D01*
D02*
G37*
G36*
X214603Y617294D02*
X214316D01*
X214307D01*
X214298D01*
X214252D01*
X214168D01*
X214058Y617285D01*
X213937D01*
X213789Y617275D01*
X213632Y617266D01*
X213456Y617248D01*
X213105Y617201D01*
X212929Y617174D01*
X212763Y617137D01*
X212606Y617100D01*
X212458Y617044D01*
X212329Y616989D01*
X212218Y616924D01*
X212208D01*
X212199Y616905D01*
X212171Y616887D01*
X212134Y616859D01*
X212051Y616776D01*
X211950Y616674D01*
X211857Y616536D01*
X211774Y616378D01*
X211737Y616295D01*
X211709Y616203D01*
X211700Y616101D01*
X211691Y615999D01*
Y615944D01*
X211700Y615907D01*
X211718Y615805D01*
X211746Y615685D01*
X211802Y615546D01*
X211885Y615398D01*
X211940Y615324D01*
X211996Y615251D01*
X212070Y615186D01*
X212153Y615121D01*
X212162D01*
X212181Y615103D01*
X212218Y615084D01*
X212264Y615056D01*
X212338Y615029D01*
X212421Y614992D01*
X212523Y614964D01*
X212643Y614927D01*
X212782Y614890D01*
X212939Y614853D01*
X213114Y614816D01*
X213309Y614788D01*
X213531Y614760D01*
X213771Y614742D01*
X214030Y614733D01*
X214316Y614724D01*
X214335D01*
X214381D01*
X214464D01*
X214575Y614733D01*
X214695D01*
X214843Y614742D01*
X215001Y614751D01*
X215167Y614770D01*
X215528Y614816D01*
X215703Y614844D01*
X215870Y614881D01*
X216027Y614918D01*
X216175Y614973D01*
X216304Y615029D01*
X216415Y615093D01*
X216424D01*
X216434Y615112D01*
X216498Y615158D01*
X216582Y615241D01*
X216674Y615343D01*
X216766Y615482D01*
X216850Y615639D01*
X216914Y615814D01*
X216924Y615907D01*
X216933Y616009D01*
Y616064D01*
X216924Y616101D01*
X216905Y616194D01*
X216868Y616323D01*
X216803Y616462D01*
X216711Y616619D01*
X216656Y616693D01*
X216582Y616767D01*
X216508Y616841D01*
X216415Y616915D01*
X216406D01*
X216387Y616933D01*
X216360Y616952D01*
X216313Y616970D01*
X216249Y617007D01*
X216166Y617035D01*
X216073Y617072D01*
X215962Y617109D01*
X215823Y617137D01*
X215676Y617174D01*
X215500Y617211D01*
X215315Y617238D01*
X215093Y617257D01*
X214862Y617275D01*
X214603Y617294D01*
D02*
G37*
G36*
X466063Y606021D02*
X465776D01*
X465767D01*
X465758D01*
X465712D01*
X465629D01*
X465518Y606012D01*
X465397D01*
X465249Y606002D01*
X465092Y605993D01*
X464916Y605975D01*
X464565Y605928D01*
X464389Y605901D01*
X464223Y605864D01*
X464066Y605827D01*
X463918Y605771D01*
X463789Y605716D01*
X463678Y605651D01*
X463668D01*
X463659Y605633D01*
X463631Y605614D01*
X463594Y605586D01*
X463511Y605503D01*
X463410Y605401D01*
X463317Y605263D01*
X463234Y605106D01*
X463197Y605022D01*
X463169Y604930D01*
X463160Y604828D01*
X463151Y604726D01*
Y604671D01*
X463160Y604634D01*
X463178Y604532D01*
X463206Y604412D01*
X463262Y604273D01*
X463345Y604126D01*
X463400Y604052D01*
X463456Y603978D01*
X463530Y603913D01*
X463613Y603848D01*
X463622D01*
X463641Y603830D01*
X463678Y603811D01*
X463724Y603783D01*
X463798Y603756D01*
X463881Y603719D01*
X463983Y603691D01*
X464103Y603654D01*
X464242Y603617D01*
X464399Y603580D01*
X464575Y603543D01*
X464769Y603515D01*
X464991Y603488D01*
X465231Y603469D01*
X465490Y603460D01*
X465776Y603451D01*
X465795D01*
X465841D01*
X465924D01*
X466035Y603460D01*
X466156D01*
X466303Y603469D01*
X466461Y603478D01*
X466627Y603497D01*
X466988Y603543D01*
X467163Y603571D01*
X467330Y603608D01*
X467487Y603645D01*
X467635Y603700D01*
X467764Y603756D01*
X467875Y603820D01*
X467884D01*
X467894Y603839D01*
X467958Y603885D01*
X468042Y603968D01*
X468134Y604070D01*
X468227Y604209D01*
X468310Y604366D01*
X468374Y604542D01*
X468384Y604634D01*
X468393Y604736D01*
Y604791D01*
X468384Y604828D01*
X468365Y604921D01*
X468328Y605050D01*
X468264Y605189D01*
X468171Y605346D01*
X468116Y605420D01*
X468042Y605494D01*
X467968Y605568D01*
X467875Y605642D01*
X467866D01*
X467847Y605660D01*
X467820Y605679D01*
X467773Y605697D01*
X467709Y605734D01*
X467626Y605762D01*
X467533Y605799D01*
X467422Y605836D01*
X467283Y605864D01*
X467136Y605901D01*
X466960Y605938D01*
X466775Y605965D01*
X466553Y605984D01*
X466322Y606002D01*
X466063Y606021D01*
D02*
G37*
G36*
X466673Y595213D02*
X463807D01*
X466673Y593197D01*
Y595213D01*
D02*
G37*
G36*
X291351Y557336D02*
X291333D01*
X291287D01*
X291203D01*
X291092Y557326D01*
X290972D01*
X290824Y557317D01*
X290667Y557308D01*
X290501Y557289D01*
X290140Y557243D01*
X289964Y557215D01*
X289798Y557178D01*
X289641Y557141D01*
X289493Y557086D01*
X289363Y557030D01*
X289252Y556966D01*
X289243D01*
X289234Y556947D01*
X289169Y556901D01*
X289086Y556818D01*
X288994Y556716D01*
X288901Y556577D01*
X288818Y556420D01*
X288753Y556245D01*
X288744Y556152D01*
X288735Y556050D01*
Y555995D01*
X288744Y555958D01*
X288762Y555866D01*
X288799Y555736D01*
X288864Y555597D01*
X288957Y555440D01*
X289012Y555366D01*
X289086Y555292D01*
X289160Y555218D01*
X289252Y555144D01*
X289262D01*
X289280Y555126D01*
X289308Y555107D01*
X289354Y555089D01*
X289419Y555052D01*
X289502Y555024D01*
X289595Y554987D01*
X289706Y554950D01*
X289844Y554922D01*
X289992Y554886D01*
X290168Y554849D01*
X290353Y554821D01*
X290575Y554802D01*
X290806Y554784D01*
X291065Y554765D01*
X291351D01*
X291360D01*
X291370D01*
X291416D01*
X291499D01*
X291610Y554775D01*
X291730D01*
X291878Y554784D01*
X292035Y554793D01*
X292211Y554812D01*
X292562Y554858D01*
X292738Y554886D01*
X292904Y554922D01*
X293062Y554959D01*
X293210Y555015D01*
X293339Y555070D01*
X293450Y555135D01*
X293459D01*
X293468Y555154D01*
X293496Y555172D01*
X293533Y555200D01*
X293616Y555283D01*
X293718Y555385D01*
X293811Y555523D01*
X293894Y555681D01*
X293931Y555764D01*
X293958Y555856D01*
X293968Y555958D01*
X293977Y556060D01*
Y556115D01*
X293968Y556152D01*
X293949Y556254D01*
X293922Y556374D01*
X293866Y556513D01*
X293783Y556661D01*
X293727Y556735D01*
X293672Y556809D01*
X293598Y556873D01*
X293515Y556938D01*
X293505D01*
X293487Y556957D01*
X293450Y556975D01*
X293404Y557003D01*
X293330Y557030D01*
X293247Y557067D01*
X293145Y557095D01*
X293025Y557132D01*
X292886Y557169D01*
X292729Y557206D01*
X292553Y557243D01*
X292359Y557271D01*
X292137Y557299D01*
X291897Y557317D01*
X291638Y557326D01*
X291351Y557336D01*
D02*
G37*
G36*
X353581Y531936D02*
X353563D01*
X353517D01*
X353433D01*
X353322Y531926D01*
X353202D01*
X353054Y531917D01*
X352897Y531908D01*
X352731Y531889D01*
X352370Y531843D01*
X352194Y531815D01*
X352028Y531778D01*
X351871Y531741D01*
X351723Y531686D01*
X351594Y531631D01*
X351483Y531566D01*
X351473D01*
X351464Y531547D01*
X351399Y531501D01*
X351316Y531418D01*
X351224Y531316D01*
X351131Y531177D01*
X351048Y531020D01*
X350983Y530845D01*
X350974Y530752D01*
X350965Y530650D01*
Y530595D01*
X350974Y530558D01*
X350993Y530466D01*
X351030Y530336D01*
X351094Y530197D01*
X351187Y530040D01*
X351242Y529966D01*
X351316Y529892D01*
X351390Y529818D01*
X351483Y529744D01*
X351492D01*
X351510Y529726D01*
X351538Y529707D01*
X351584Y529689D01*
X351649Y529652D01*
X351732Y529624D01*
X351825Y529587D01*
X351936Y529550D01*
X352074Y529523D01*
X352222Y529486D01*
X352398Y529449D01*
X352583Y529421D01*
X352805Y529402D01*
X353036Y529384D01*
X353295Y529365D01*
X353581D01*
X353591D01*
X353600D01*
X353646D01*
X353729D01*
X353840Y529375D01*
X353960D01*
X354108Y529384D01*
X354265Y529393D01*
X354441Y529412D01*
X354792Y529458D01*
X354968Y529486D01*
X355135Y529523D01*
X355292Y529560D01*
X355440Y529615D01*
X355569Y529670D01*
X355680Y529735D01*
X355689D01*
X355699Y529754D01*
X355726Y529772D01*
X355763Y529800D01*
X355846Y529883D01*
X355948Y529985D01*
X356041Y530123D01*
X356124Y530281D01*
X356161Y530364D01*
X356189Y530456D01*
X356198Y530558D01*
X356207Y530660D01*
Y530715D01*
X356198Y530752D01*
X356179Y530854D01*
X356152Y530974D01*
X356096Y531113D01*
X356013Y531261D01*
X355957Y531335D01*
X355902Y531409D01*
X355828Y531473D01*
X355745Y531538D01*
X355736D01*
X355717Y531557D01*
X355680Y531575D01*
X355634Y531603D01*
X355560Y531631D01*
X355477Y531668D01*
X355375Y531695D01*
X355255Y531732D01*
X355116Y531769D01*
X354959Y531806D01*
X354783Y531843D01*
X354589Y531871D01*
X354367Y531899D01*
X354127Y531917D01*
X353868Y531926D01*
X353581Y531936D01*
D02*
G37*
G36*
X535741Y434150D02*
X533818D01*
Y432578D01*
X533828Y432458D01*
X533837Y432328D01*
X533846Y432199D01*
X533865Y432069D01*
X533883Y431968D01*
X533892Y431949D01*
X533901Y431912D01*
X533929Y431857D01*
X533966Y431783D01*
X534003Y431709D01*
X534059Y431626D01*
X534133Y431542D01*
X534207Y431478D01*
X534216Y431468D01*
X534244Y431450D01*
X534299Y431422D01*
X534364Y431394D01*
X534438Y431367D01*
X534530Y431339D01*
X534641Y431320D01*
X534761Y431311D01*
X534780D01*
X534817D01*
X534872Y431320D01*
X534946Y431330D01*
X535039Y431348D01*
X535131Y431376D01*
X535224Y431413D01*
X535316Y431468D01*
X535325Y431478D01*
X535353Y431496D01*
X535399Y431533D01*
X535446Y431579D01*
X535501Y431644D01*
X535556Y431718D01*
X535612Y431810D01*
X535649Y431912D01*
Y431921D01*
X535667Y431968D01*
X535677Y432032D01*
X535695Y432134D01*
X535714Y432273D01*
X535723Y432430D01*
X535741Y432633D01*
Y434150D01*
D02*
G37*
G36*
X533060D02*
X530860D01*
Y432328D01*
X530869Y432134D01*
X530878Y432051D01*
X530887Y431977D01*
Y431968D01*
X530897Y431931D01*
X530906Y431875D01*
X530924Y431810D01*
X530980Y431653D01*
X531054Y431496D01*
X531063Y431487D01*
X531082Y431459D01*
X531109Y431422D01*
X531146Y431376D01*
X531202Y431330D01*
X531257Y431265D01*
X531331Y431219D01*
X531414Y431163D01*
X531424Y431154D01*
X531451Y431145D01*
X531507Y431126D01*
X531572Y431099D01*
X531646Y431071D01*
X531738Y431052D01*
X531849Y431043D01*
X531960Y431034D01*
X531978D01*
X532015D01*
X532089Y431043D01*
X532173Y431062D01*
X532265Y431080D01*
X532367Y431117D01*
X532468Y431163D01*
X532570Y431228D01*
X532579Y431237D01*
X532616Y431265D01*
X532663Y431302D01*
X532718Y431357D01*
X532783Y431431D01*
X532848Y431524D01*
X532903Y431626D01*
X532949Y431746D01*
X532958Y431764D01*
X532968Y431801D01*
X532986Y431884D01*
X533005Y431986D01*
X533023Y432116D01*
X533042Y432273D01*
X533060Y432467D01*
Y434150D01*
D02*
G37*
G36*
X532866Y414595D02*
Y411997D01*
X532875D01*
X532894D01*
X532921Y412006D01*
X532958D01*
X533069Y412025D01*
X533190Y412052D01*
X533338Y412099D01*
X533476Y412145D01*
X533615Y412219D01*
X533735Y412302D01*
X533744D01*
X533754Y412321D01*
X533809Y412367D01*
X533883Y412450D01*
X533966Y412561D01*
X534049Y412700D01*
X534123Y412866D01*
X534179Y413060D01*
X534188Y413162D01*
X534197Y413273D01*
Y413328D01*
X534188Y413365D01*
X534179Y413467D01*
X534151Y413587D01*
X534105Y413735D01*
X534040Y413892D01*
X533948Y414040D01*
X533828Y414188D01*
X533809Y414207D01*
X533763Y414244D01*
X533680Y414309D01*
X533569Y414373D01*
X533439Y414447D01*
X533273Y414512D01*
X533079Y414567D01*
X532866Y414595D01*
D02*
G37*
G36*
X128193Y182026D02*
X128184D01*
X128156D01*
X128119D01*
X128064D01*
X127990Y182017D01*
X127916D01*
X127824Y182008D01*
X127731Y181989D01*
X127519Y181961D01*
X127287Y181915D01*
X127056Y181850D01*
X126834Y181758D01*
X126825D01*
X126807Y181749D01*
X126779Y181730D01*
X126742Y181712D01*
X126631Y181647D01*
X126502Y181564D01*
X126354Y181453D01*
X126206Y181314D01*
X126058Y181157D01*
X125928Y180981D01*
Y180972D01*
X125910Y180963D01*
X125900Y180935D01*
X125873Y180889D01*
X125854Y180843D01*
X125827Y180787D01*
X125762Y180648D01*
X125706Y180482D01*
X125651Y180288D01*
X125614Y180066D01*
X125605Y179835D01*
Y179742D01*
X125614Y179678D01*
X125623Y179594D01*
X125642Y179502D01*
X125660Y179400D01*
X125688Y179289D01*
X125725Y179160D01*
X125762Y179040D01*
X125817Y178910D01*
X125882Y178772D01*
X125956Y178642D01*
X126048Y178513D01*
X126141Y178383D01*
X126261Y178263D01*
X126270Y178254D01*
X126289Y178235D01*
X126326Y178208D01*
X126381Y178171D01*
X126446Y178115D01*
X126529Y178069D01*
X126631Y178013D01*
X126742Y177958D01*
X126871Y177893D01*
X127019Y177838D01*
X127176Y177792D01*
X127352Y177745D01*
X127537Y177699D01*
X127740Y177671D01*
X127962Y177653D01*
X128193Y177644D01*
X128212D01*
X128249D01*
X128314D01*
X128397Y177653D01*
X128498Y177662D01*
X128619Y177681D01*
X128757Y177699D01*
X128896Y177718D01*
X129211Y177792D01*
X129368Y177838D01*
X129525Y177903D01*
X129682Y177967D01*
X129830Y178050D01*
X129978Y178143D01*
X130107Y178254D01*
X130117Y178263D01*
X130135Y178282D01*
X130172Y178319D01*
X130209Y178365D01*
X130265Y178430D01*
X130320Y178503D01*
X130375Y178587D01*
X130440Y178688D01*
X130505Y178790D01*
X130560Y178910D01*
X130616Y179040D01*
X130671Y179178D01*
X130708Y179336D01*
X130745Y179493D01*
X130764Y179659D01*
X130773Y179835D01*
Y179918D01*
X130764Y180001D01*
X130754Y180112D01*
X130736Y180251D01*
X130699Y180390D01*
X130662Y180547D01*
X130606Y180695D01*
X130597Y180676D01*
X130560Y180630D01*
X130514Y180547D01*
X130459Y180445D01*
X130403Y180316D01*
X130338Y180177D01*
X130283Y180020D01*
X130237Y179853D01*
X129627Y180066D01*
Y180075D01*
X129636Y180103D01*
X129645Y180140D01*
X129663Y180186D01*
X129682Y180251D01*
X129710Y180325D01*
X129774Y180491D01*
X129867Y180686D01*
X129969Y180889D01*
X130089Y181083D01*
X130237Y181277D01*
X130227Y181286D01*
X130209Y181314D01*
X130163Y181351D01*
X130107Y181397D01*
X130033Y181453D01*
X129950Y181518D01*
X129848Y181582D01*
X129728Y181656D01*
X129590Y181721D01*
X129432Y181786D01*
X129266Y181850D01*
X129090Y181906D01*
X128887Y181961D01*
X128674Y181998D01*
X128443Y182017D01*
X128193Y182026D01*
D02*
G37*
G36*
X232707Y513043D02*
X232652D01*
X232615Y513034D01*
X232523Y513015D01*
X232393Y512978D01*
X232254Y512914D01*
X232097Y512821D01*
X232023Y512766D01*
X231949Y512692D01*
X231875Y512618D01*
X231801Y512525D01*
Y512516D01*
X231783Y512497D01*
X231764Y512470D01*
X231746Y512423D01*
X231709Y512359D01*
X231681Y512276D01*
X231644Y512183D01*
X231607Y512072D01*
X231579Y511933D01*
X231542Y511786D01*
X231506Y511610D01*
X231478Y511425D01*
X231459Y511203D01*
X231441Y510972D01*
X231422Y510713D01*
Y510426D01*
Y510417D01*
Y510408D01*
Y510362D01*
Y510279D01*
X231432Y510168D01*
Y510047D01*
X231441Y509899D01*
X231450Y509742D01*
X231469Y509566D01*
X231515Y509215D01*
X231542Y509039D01*
X231579Y508873D01*
X231616Y508716D01*
X231672Y508568D01*
X231727Y508439D01*
X231792Y508328D01*
Y508318D01*
X231811Y508309D01*
X231829Y508281D01*
X231857Y508244D01*
X231940Y508161D01*
X232042Y508060D01*
X232180Y507967D01*
X232338Y507884D01*
X232421Y507847D01*
X232513Y507819D01*
X232615Y507810D01*
X232717Y507801D01*
X232772D01*
X232809Y507810D01*
X232911Y507828D01*
X233031Y507856D01*
X233170Y507912D01*
X233318Y507995D01*
X233392Y508050D01*
X233465Y508106D01*
X233530Y508180D01*
X233595Y508263D01*
Y508272D01*
X233613Y508291D01*
X233632Y508328D01*
X233660Y508374D01*
X233687Y508448D01*
X233724Y508531D01*
X233752Y508633D01*
X233789Y508753D01*
X233826Y508892D01*
X233863Y509049D01*
X233900Y509225D01*
X233928Y509419D01*
X233956Y509641D01*
X233974Y509881D01*
X233983Y510140D01*
X233993Y510426D01*
Y510445D01*
Y510491D01*
Y510574D01*
X233983Y510685D01*
Y510806D01*
X233974Y510953D01*
X233965Y511111D01*
X233946Y511277D01*
X233900Y511638D01*
X233872Y511813D01*
X233835Y511980D01*
X233798Y512137D01*
X233743Y512285D01*
X233687Y512414D01*
X233623Y512525D01*
Y512534D01*
X233604Y512544D01*
X233558Y512608D01*
X233475Y512692D01*
X233373Y512784D01*
X233234Y512877D01*
X233077Y512960D01*
X232902Y513024D01*
X232809Y513034D01*
X232707Y513043D01*
D02*
G37*
G36*
X418791Y193003D02*
X418736D01*
X418699Y192994D01*
X418606Y192975D01*
X418477Y192938D01*
X418338Y192873D01*
X418181Y192781D01*
X418107Y192726D01*
X418033Y192652D01*
X417959Y192578D01*
X417885Y192485D01*
Y192476D01*
X417867Y192457D01*
X417848Y192430D01*
X417830Y192383D01*
X417793Y192319D01*
X417765Y192236D01*
X417728Y192143D01*
X417691Y192032D01*
X417663Y191893D01*
X417626Y191745D01*
X417589Y191570D01*
X417562Y191385D01*
X417543Y191163D01*
X417525Y190932D01*
X417506Y190673D01*
Y190386D01*
Y190377D01*
Y190368D01*
Y190322D01*
Y190238D01*
X417515Y190128D01*
Y190007D01*
X417525Y189859D01*
X417534Y189702D01*
X417552Y189527D01*
X417599Y189175D01*
X417626Y189000D01*
X417663Y188833D01*
X417700Y188676D01*
X417756Y188528D01*
X417811Y188399D01*
X417876Y188288D01*
Y188278D01*
X417895Y188269D01*
X417913Y188241D01*
X417941Y188204D01*
X418024Y188121D01*
X418126Y188020D01*
X418264Y187927D01*
X418422Y187844D01*
X418505Y187807D01*
X418597Y187779D01*
X418699Y187770D01*
X418801Y187761D01*
X418856D01*
X418893Y187770D01*
X418995Y187788D01*
X419115Y187816D01*
X419254Y187872D01*
X419402Y187955D01*
X419476Y188010D01*
X419549Y188066D01*
X419614Y188140D01*
X419679Y188223D01*
Y188232D01*
X419697Y188251D01*
X419716Y188288D01*
X419744Y188334D01*
X419771Y188408D01*
X419808Y188491D01*
X419836Y188593D01*
X419873Y188713D01*
X419910Y188852D01*
X419947Y189009D01*
X419984Y189184D01*
X420012Y189379D01*
X420039Y189601D01*
X420058Y189841D01*
X420067Y190100D01*
X420076Y190386D01*
Y190405D01*
Y190451D01*
Y190534D01*
X420067Y190645D01*
Y190765D01*
X420058Y190913D01*
X420049Y191071D01*
X420030Y191237D01*
X419984Y191598D01*
X419956Y191773D01*
X419919Y191940D01*
X419882Y192097D01*
X419827Y192245D01*
X419771Y192374D01*
X419707Y192485D01*
Y192494D01*
X419688Y192504D01*
X419642Y192568D01*
X419559Y192652D01*
X419457Y192744D01*
X419318Y192836D01*
X419161Y192920D01*
X418985Y192984D01*
X418893Y192994D01*
X418791Y193003D01*
D02*
G37*
%LPD*%
D11*
X21100Y445800D02*
X78900D01*
X21100D02*
Y474200D01*
X78900D01*
Y445800D02*
Y474200D01*
X75900Y446300D02*
X154100D01*
X75900D02*
Y473700D01*
X154100D01*
Y446300D02*
Y473700D01*
X505800Y148800D02*
X534200D01*
Y206600D01*
X505800D02*
X534200D01*
X505800Y148800D02*
Y206600D01*
X115800Y266100D02*
X144200D01*
Y323900D01*
X115800D02*
X144200D01*
X115800Y266100D02*
Y323900D01*
X182500Y401700D02*
X237500D01*
X182500Y168300D02*
Y401700D01*
Y168300D02*
X237500D01*
Y401700D01*
X535800Y513400D02*
X564200D01*
Y571200D01*
X535800D02*
X564200D01*
X535800Y513400D02*
Y571200D01*
X273095Y584540D02*
X306845D01*
X273095Y531740D02*
Y584540D01*
Y531740D02*
X306845D01*
Y584540D01*
X335325Y559140D02*
X369075D01*
X335325Y506340D02*
Y559140D01*
Y506340D02*
X369075D01*
Y559140D01*
X515800Y463900D02*
X544200D01*
X515800Y406100D02*
Y463900D01*
Y406100D02*
X544200D01*
Y463900D01*
X116300Y130500D02*
X143700D01*
Y208700D01*
X116300D02*
X143700D01*
X116300Y130500D02*
Y208700D01*
X278720Y502690D02*
Y524690D01*
X199620D02*
X278720D01*
X199620Y502690D02*
Y524690D01*
Y502690D02*
X278720D01*
X492440Y180200D02*
Y207100D01*
X369440D02*
X492440D01*
X369440Y180200D02*
Y207100D01*
Y180200D02*
X492440D01*
M02*
